<?xml version="1.0" encoding="UTF-8" standalone="no"?>
<!-- Created with Inkscape (http://www.inkscape.org/) -->

<svg
   xmlns:dc="http://purl.org/dc/elements/1.1/"
   xmlns:cc="http://creativecommons.org/ns#"
   xmlns:rdf="http://www.w3.org/1999/02/22-rdf-syntax-ns#"
   xmlns:svg="http://www.w3.org/2000/svg"
   xmlns="http://www.w3.org/2000/svg"
   xmlns:sodipodi="http://sodipodi.sourceforge.net/DTD/sodipodi-0.dtd"
   xmlns:inkscape="http://www.inkscape.org/namespaces/inkscape"
   width="1000"
   height="1000"
   viewBox="0 0 1000 1000"
   id="svg4311"
   version="1.1"
   inkscape:version="0.92.2 5c3e80d, 2017-08-06"
   sodipodi:docname="BOINCOS-Experimental-Logo.svg"
   inkscape:export-filename="/home/mark/Pictures/screenshots/logo_experimental.png"
   inkscape:export-xdpi="270"
   inkscape:export-ydpi="270">
  <defs
     id="defs4313" />
  <sodipodi:namedview
     id="base"
     pagecolor="#ffffff"
     bordercolor="#666666"
     borderopacity="1.0"
     inkscape:pageopacity="0.0"
     inkscape:pageshadow="2"
     inkscape:zoom="0.5796875"
     inkscape:cx="265.88913"
     inkscape:cy="409.87064"
     inkscape:document-units="px"
     inkscape:current-layer="layer1"
     showgrid="false"
     units="px"
     inkscape:window-width="1920"
     inkscape:window-height="1017"
     inkscape:window-x="1920"
     inkscape:window-y="35"
     inkscape:window-maximized="1" />
  <metadata
     id="metadata4316">
    <rdf:RDF>
      <cc:Work
         rdf:about="">
        <dc:format>image/svg+xml</dc:format>
        <dc:type
           rdf:resource="http://purl.org/dc/dcmitype/StillImage" />
        <dc:title></dc:title>
      </cc:Work>
    </rdf:RDF>
  </metadata>
  <g
     inkscape:label="Layer 1"
     inkscape:groupmode="layer"
     id="layer1"
     transform="translate(0,-52.362161)">
    <ellipse
       style="opacity:1;fill:none;fill-opacity:1;fill-rule:nonzero;stroke:#2ba92b;stroke-width:47.1181221;stroke-linejoin:miter;stroke-miterlimit:4;stroke-dasharray:none;stroke-opacity:1"
       id="path4866"
       cx="500.00226"
       cy="552.36212"
       rx="141.59956"
       ry="476.44095" />
    <ellipse
       ry="476.44095"
       rx="141.59956"
       cy="-156.8327"
       cx="728.36273"
       id="ellipse4868"
       style="opacity:1;fill:none;fill-opacity:1;fill-rule:nonzero;stroke:#2ba92b;stroke-width:47.1181221;stroke-linejoin:miter;stroke-miterlimit:4;stroke-dasharray:none;stroke-opacity:1"
       transform="rotate(60)" />
    <ellipse
       transform="rotate(120)"
       style="opacity:1;fill:none;fill-opacity:1;fill-rule:nonzero;stroke:#2ba92b;stroke-width:47.1181221;stroke-linejoin:miter;stroke-miterlimit:4;stroke-dasharray:none;stroke-opacity:1"
       id="ellipse4870"
       cx="228.36102"
       cy="-709.1958"
       rx="141.59956"
       ry="476.44095" />
    <path
       sodipodi:nodetypes="zccczzccczzccczzccczz"
       inkscape:connector-curvature="0"
       style="opacity:1;fill:#00285c;fill-opacity:1;fill-rule:nonzero;stroke:none;stroke-width:2.55546403;stroke-linejoin:miter;stroke-miterlimit:4;stroke-dasharray:none;stroke-opacity:1"
       d="m 396.6071,394.66155 c 25.75269,0 51.31522,0 51.31522,0 h 51.31495 51.3155 c 0,0 22.70212,0.0127 51.31417,0 28.61208,-0.0127 51.31664,25.56201 51.31664,51.3147 0,25.75269 0,51.31523 0,51.31523 v 51.31492 51.31555 c 0,0 -0.0127,23.48516 0,51.31416 0.0127,27.8289 -25.562,51.31663 -51.31471,51.31663 -25.75268,0 -51.31522,0 -51.31522,0 H 499.23872 447.9232 c 0,0 -23.09367,-0.0124 -51.31418,0 -28.22048,0.0124 -51.31662,-25.56201 -51.31662,-51.31469 0,-25.75277 0,-51.31521 0,-51.31521 v -51.31498 -51.31551 c 0,0 0.0127,-23.87682 0,-51.31417 -0.0127,-27.43736 25.56201,-51.31663 51.3147,-51.31663 z"
       id="rect5371" />
    <path
       id="path5396"
       d="m 430.47529,445.4636 c 17.25431,0 34.38121,0 34.38121,0 h 34.38101 34.38139 c 0,0 15.21042,0.009 34.38051,0 19.17006,-0.009 34.38212,17.12654 34.38212,34.38084 0,17.2543 0,34.38121 0,34.38121 v 34.38099 34.3814 c 0,0 -0.009,15.7351 0,34.38045 0.009,18.64544 -17.12654,34.38216 -34.38084,34.38216 -17.2543,0 -34.38121,0 -34.38121,0 h -34.38099 -34.3814 c 0,0 -15.47278,-0.009 -34.3805,0 -18.90773,0.009 -34.38214,-17.12656 -34.38214,-34.38083 0,-17.25427 0,-34.38121 0,-34.38121 v -34.38099 -34.38138 c 0,0 0.009,-15.99748 0,-34.38051 -0.009,-18.38302 17.12655,-34.38213 34.38084,-34.38213 z"
       style="opacity:1;fill:#ffcd06;fill-opacity:1;fill-rule:nonzero;stroke:none;stroke-width:2.55546403;stroke-linejoin:miter;stroke-miterlimit:4;stroke-dasharray:none;stroke-opacity:1"
       inkscape:connector-curvature="0"
       sodipodi:nodetypes="zccczzccczzccczzccczz" />
    <rect
       y="308.25473"
       x="420.19266"
       height="87.163139"
       width="18.158979"
       id="rect5398"
       style="opacity:1;fill:#00285c;fill-opacity:1;fill-rule:nonzero;stroke:none;stroke-width:2.55546403;stroke-linejoin:miter;stroke-miterlimit:4;stroke-dasharray:none;stroke-opacity:1" />
    <rect
       transform="rotate(90)"
       style="opacity:1;fill:#00285c;fill-opacity:1;fill-rule:nonzero;stroke:none;stroke-width:2.55546403;stroke-linejoin:miter;stroke-miterlimit:4;stroke-dasharray:none;stroke-opacity:1"
       id="rect5400"
       width="18.158979"
       height="43.581547"
       x="308.24118"
       y="-463.91132" />
    <circle
       r="20.722609"
       cy="317.53693"
       cx="477.63626"
       id="path5420"
       style="opacity:1;fill:#ffcd06;fill-opacity:1;fill-rule:nonzero;stroke:none;stroke-width:2.55546403;stroke-linejoin:miter;stroke-miterlimit:4;stroke-dasharray:none;stroke-opacity:1" />
    <rect
       y="351.22501"
       x="546.10077"
       height="43.942684"
       width="18.158979"
       id="rect5424"
       style="opacity:1;fill:#00285c;fill-opacity:1;fill-rule:nonzero;stroke:none;stroke-width:2.55546403;stroke-linejoin:miter;stroke-miterlimit:4;stroke-dasharray:none;stroke-opacity:1" />
    <circle
       transform="rotate(-90)"
       style="opacity:1;fill:#ffcd06;fill-opacity:1;fill-rule:nonzero;stroke:none;stroke-width:2.55546403;stroke-linejoin:miter;stroke-miterlimit:4;stroke-dasharray:none;stroke-opacity:1"
       id="circle5426"
       cx="-337.50009"
       cy="555.39581"
       r="20.722609" />
    <rect
       transform="matrix(0,-1,-1,0,0,0)"
       y="-738.95996"
       x="-520.58093"
       height="87.163139"
       width="18.158979"
       id="rect5428"
       style="opacity:1;fill:#00285c;fill-opacity:1;fill-rule:nonzero;stroke:none;stroke-width:2.55546403;stroke-linejoin:miter;stroke-miterlimit:4;stroke-dasharray:none;stroke-opacity:1" />
    <rect
       transform="scale(-1,1)"
       style="opacity:1;fill:#00285c;fill-opacity:1;fill-rule:nonzero;stroke:none;stroke-width:2.55546403;stroke-linejoin:miter;stroke-miterlimit:4;stroke-dasharray:none;stroke-opacity:1"
       id="rect5430"
       width="18.158979"
       height="87.163139"
       x="-738.97345"
       y="433.2807" />
    <circle
       transform="matrix(0,-1,-1,0,0,0)"
       r="20.722609"
       cy="-729.67853"
       cx="-434.08295"
       id="circle5432"
       style="opacity:1;fill:#ffcd06;fill-opacity:1;fill-rule:nonzero;stroke:none;stroke-width:2.55546403;stroke-linejoin:miter;stroke-miterlimit:4;stroke-dasharray:none;stroke-opacity:1" />
    <rect
       y="-787.98669"
       x="424.92218"
       height="87.163139"
       width="18.158979"
       id="rect5436"
       style="opacity:1;fill:#00285c;fill-opacity:1;fill-rule:nonzero;stroke:none;stroke-width:2.55546403;stroke-linejoin:miter;stroke-miterlimit:4;stroke-dasharray:none;stroke-opacity:1"
       transform="scale(1,-1)" />
    <circle
       transform="matrix(0,1,1,0,0,0)"
       style="opacity:1;fill:#ffcd06;fill-opacity:1;fill-rule:nonzero;stroke:none;stroke-width:2.55546403;stroke-linejoin:miter;stroke-miterlimit:4;stroke-dasharray:none;stroke-opacity:1"
       id="circle5438"
       cx="787.18457"
       cy="434.21701"
       r="20.722609" />
    <rect
       transform="rotate(-90)"
       y="262.4292"
       x="-572.0686"
       height="87.163139"
       width="18.158979"
       id="rect5440"
       style="opacity:1;fill:#00285c;fill-opacity:1;fill-rule:nonzero;stroke:none;stroke-width:2.55546403;stroke-linejoin:miter;stroke-miterlimit:4;stroke-dasharray:none;stroke-opacity:1" />
    <rect
       style="opacity:1;fill:#00285c;fill-opacity:1;fill-rule:nonzero;stroke:none;stroke-width:2.55546403;stroke-linejoin:miter;stroke-miterlimit:4;stroke-dasharray:none;stroke-opacity:1"
       id="rect5442"
       width="18.158979"
       height="87.163139"
       x="262.41568"
       y="484.7684" />
    <circle
       transform="rotate(-90)"
       r="20.722609"
       cy="271.71057"
       cx="-485.57065"
       id="circle5444"
       style="opacity:1;fill:#ffcd06;fill-opacity:1;fill-rule:nonzero;stroke:none;stroke-width:2.55546403;stroke-linejoin:miter;stroke-miterlimit:4;stroke-dasharray:none;stroke-opacity:1" />
    <rect
       transform="matrix(0,1,1,0,0,0)"
       style="opacity:1;fill:#00285c;fill-opacity:1;fill-rule:nonzero;stroke:none;stroke-width:2.55546403;stroke-linejoin:miter;stroke-miterlimit:4;stroke-dasharray:none;stroke-opacity:1"
       id="rect5446"
       width="18.158979"
       height="87.163139"
       x="599.65533"
       y="260.94122" />
    <rect
       y="-686.95557"
       x="260.9277"
       height="87.163139"
       width="18.158979"
       id="rect5448"
       style="opacity:1;fill:#00285c;fill-opacity:1;fill-rule:nonzero;stroke:none;stroke-width:2.55546403;stroke-linejoin:miter;stroke-miterlimit:4;stroke-dasharray:none;stroke-opacity:1"
       transform="scale(1,-1)" />
    <circle
       transform="matrix(0,1,1,0,0,0)"
       style="opacity:1;fill:#ffcd06;fill-opacity:1;fill-rule:nonzero;stroke:none;stroke-width:2.55546403;stroke-linejoin:miter;stroke-miterlimit:4;stroke-dasharray:none;stroke-opacity:1"
       id="circle5450"
       cx="686.1532"
       cy="270.2226"
       r="20.722609" />
    <rect
       transform="scale(-1)"
       y="-743.57867"
       x="-588.52368"
       height="43.581547"
       width="18.158979"
       id="rect5452"
       style="opacity:1;fill:#00285c;fill-opacity:1;fill-rule:nonzero;stroke:none;stroke-width:2.55546403;stroke-linejoin:miter;stroke-miterlimit:4;stroke-dasharray:none;stroke-opacity:1" />
    <rect
       transform="rotate(-90)"
       style="opacity:1;fill:#00285c;fill-opacity:1;fill-rule:nonzero;stroke:none;stroke-width:2.55546403;stroke-linejoin:miter;stroke-miterlimit:4;stroke-dasharray:none;stroke-opacity:1"
       id="rect5454"
       width="18.158979"
       height="87.163139"
       x="-743.59229"
       y="501.22348" />
    <circle
       transform="scale(-1)"
       r="20.722609"
       cy="-734.29706"
       cx="-502.02573"
       id="circle5456"
       style="opacity:1;fill:#ffcd06;fill-opacity:1;fill-rule:nonzero;stroke:none;stroke-width:2.55546403;stroke-linejoin:miter;stroke-miterlimit:4;stroke-dasharray:none;stroke-opacity:1" />
    <rect
       transform="rotate(90)"
       style="opacity:1;fill:#00285c;fill-opacity:1;fill-rule:nonzero;stroke:none;stroke-width:2.55546403;stroke-linejoin:miter;stroke-miterlimit:4;stroke-dasharray:none;stroke-opacity:1"
       id="rect5458"
       width="18.158979"
       height="43.581547"
       x="590.36047"
       y="-694.35468" />
    <circle
       r="20.722609"
       cy="599.65546"
       cx="708.07965"
       id="circle5460"
       style="opacity:1;fill:#ffcd06;fill-opacity:1;fill-rule:nonzero;stroke:none;stroke-width:2.55546403;stroke-linejoin:miter;stroke-miterlimit:4;stroke-dasharray:none;stroke-opacity:1" />
  </g>
</svg>
