<?xml version="1.0" encoding="UTF-8" standalone="no"?>
<!-- Created with Inkscape (http://www.inkscape.org/) -->

<svg
   xmlns:dc="http://purl.org/dc/elements/1.1/"
   xmlns:cc="http://creativecommons.org/ns#"
   xmlns:rdf="http://www.w3.org/1999/02/22-rdf-syntax-ns#"
   xmlns:svg="http://www.w3.org/2000/svg"
   xmlns="http://www.w3.org/2000/svg"
   xmlns:sodipodi="http://sodipodi.sourceforge.net/DTD/sodipodi-0.dtd"
   xmlns:inkscape="http://www.inkscape.org/namespaces/inkscape"
   width="1000"
   height="875"
   viewBox="0 0 999.99999 874.99997"
   id="svg2"
   version="1.1"
   inkscape:version="0.91 r13725"
   sodipodi:docname="easy_to_use.svg">
  <defs
     id="defs4" />
  <sodipodi:namedview
     id="base"
     pagecolor="#ffffff"
     bordercolor="#666666"
     borderopacity="1.0"
     inkscape:pageopacity="0.0"
     inkscape:pageshadow="2"
     inkscape:zoom="0.5796875"
     inkscape:cx="919.76874"
     inkscape:cy="345.46576"
     inkscape:document-units="px"
     inkscape:current-layer="layer2"
     showgrid="false"
     units="px"
     inkscape:window-width="1877"
     inkscape:window-height="1018"
     inkscape:window-x="1920"
     inkscape:window-y="34"
     inkscape:window-maximized="1" />
  <metadata
     id="metadata7">
    <rdf:RDF>
      <cc:Work
         rdf:about="">
        <dc:format>image/svg+xml</dc:format>
        <dc:type
           rdf:resource="http://purl.org/dc/dcmitype/StillImage" />
        <dc:title></dc:title>
      </cc:Work>
    </rdf:RDF>
  </metadata>
  <g
     inkscape:label="Layer 1"
     inkscape:groupmode="layer"
     id="layer1"
     transform="translate(0,-177.3624)">
    <rect
       style="opacity:1;fill:#4d4d4d;fill-opacity:1;fill-rule:nonzero;stroke:#1a1a1a;stroke-width:5;stroke-linecap:butt;stroke-linejoin:miter;stroke-miterlimit:4;stroke-dasharray:none;stroke-dashoffset:0;stroke-opacity:1"
       id="rect4145"
       width="233.55067"
       height="80.550682"
       x="383.22467"
       y="876.98273"
       ry="28.263401" />
    <rect
       style="opacity:1;fill:#4d4d4d;fill-opacity:1;fill-rule:nonzero;stroke:#1a1a1a;stroke-width:5;stroke-linecap:butt;stroke-linejoin:miter;stroke-miterlimit:4;stroke-dasharray:none;stroke-dashoffset:0;stroke-opacity:1"
       id="rect3340"
       width="83.884972"
       height="173.88496"
       x="458.05753"
       y="749.52594"
       ry="0" />
  </g>
  <g
     inkscape:groupmode="layer"
     id="layer2"
     inkscape:label="Layer 2"
     transform="translate(0,-2225.3939)">
    <rect
       style="opacity:1;fill:#4d4d4d;fill-opacity:1;fill-rule:nonzero;stroke:#1a1a1a;stroke-width:5;stroke-linecap:butt;stroke-linejoin:miter;stroke-miterlimit:4;stroke-dasharray:none;stroke-dashoffset:0;stroke-opacity:1"
       id="rect3336"
       width="762.3808"
       height="512.3808"
       x="118.80959"
       y="2320.2224"
       ry="96.956573" />
    <rect
       ry="77.552856"
       y="2371.4927"
       x="164.52039"
       height="409.83908"
       width="670.95905"
       id="rect3338"
       style="opacity:1;fill:#ececec;fill-opacity:1;fill-rule:nonzero;stroke:#1a1a1a;stroke-width:5;stroke-linecap:butt;stroke-linejoin:miter;stroke-miterlimit:4;stroke-dasharray:none;stroke-dashoffset:0;stroke-opacity:1" />
    <g
       transform="matrix(0.34283646,0,0,0.34283599,328.57164,2387.041)"
       id="layer1-6"
       inkscape:label="Layer 1">
      <path
         id="rect5371"
         d="m 297.82855,243.80923 c 50.38752,0 100.40295,0 100.40295,0 l 100.40241,0 100.40348,0 c 0,0 44.41878,0.0249 100.40091,0 55.98214,-0.0249 100.40572,50.01444 100.40572,100.40195 0,50.3875 0,100.40295 0,100.40295 l 0,100.40237 0,100.40352 c 0,0 -0.0249,45.95101 0,100.40088 0.0249,54.44986 -50.01442,100.40572 -100.40195,100.40572 -50.38749,0 -100.40295,0 -100.40295,0 l -100.40237,0 -100.40352,0 c 0,0 -45.18491,-0.0249 -100.40092,0 -55.21597,0.0249 -100.40568,-50.01446 -100.40568,-100.40195 0,-50.38753 0,-100.40294 0,-100.40294 l 0,-100.40238 0,-100.40351 c 0,0 0.0249,-46.7172 0,-100.40089 -0.0249,-53.68372 50.01443,-100.40572 100.40192,-100.40572 z"
         style="opacity:1;fill:#00285c;fill-opacity:1;fill-rule:nonzero;stroke:none;stroke-width:5;stroke-linejoin:miter;stroke-miterlimit:4;stroke-dasharray:none;stroke-opacity:1"
         inkscape:connector-curvature="0"
         sodipodi:nodetypes="zccczzccczzccczzccczz" />
      <path
         sodipodi:nodetypes="zccczzccczzccczzccczz"
         inkscape:connector-curvature="0"
         style="opacity:1;fill:#ffcd06;fill-opacity:1;fill-rule:nonzero;stroke:none;stroke-width:5;stroke-linejoin:miter;stroke-miterlimit:4;stroke-dasharray:none;stroke-opacity:1"
         d="m 364.09479,343.20811 c 33.75963,0 67.26997,0 67.26997,0 l 67.26961,0 67.27035,0 c 0,0 29.76058,0.0177 67.26862,0 37.508,-0.0177 67.2718,33.50967 67.2718,67.26929 0,33.75962 0,67.27 0,67.27 l 0,67.26956 0,67.27036 c 0,0 -0.0177,30.78718 0,67.26861 0.0177,36.48138 -33.50967,67.27182 -67.26928,67.27182 -33.75962,0 -67.27,0 -67.27,0 l -67.26957,0 -67.27036,0 c 0,0 -30.27391,-0.0177 -67.26861,0 -36.99471,0.0177 -67.27182,-33.50967 -67.27182,-67.26929 0,-33.75965 0,-67.27 0,-67.27 l 0,-67.26958 0,-67.27034 c 0,0 0.0177,-31.30054 0,-67.26861 -0.0177,-35.96809 33.50968,-67.27182 67.26929,-67.27182 z"
         id="path5396" />
      <rect
         style="opacity:1;fill:#00285c;fill-opacity:1;fill-rule:nonzero;stroke:none;stroke-width:5;stroke-linejoin:miter;stroke-miterlimit:4;stroke-dasharray:none;stroke-opacity:1"
         id="rect5398"
         width="35.529713"
         height="170.54269"
         x="343.97589"
         y="74.746384" />
      <rect
         y="-429.51544"
         x="74.719917"
         height="85.271301"
         width="35.529713"
         id="rect5400"
         style="opacity:1;fill:#00285c;fill-opacity:1;fill-rule:nonzero;stroke:none;stroke-width:5;stroke-linejoin:miter;stroke-miterlimit:4;stroke-dasharray:none;stroke-opacity:1"
         transform="matrix(0,1,-1,0,0,0)" />
      <circle
         style="opacity:1;fill:#ffcd06;fill-opacity:1;fill-rule:nonzero;stroke:none;stroke-width:5;stroke-linejoin:miter;stroke-miterlimit:4;stroke-dasharray:none;stroke-opacity:1"
         id="path5420"
         cx="456.36963"
         cy="92.907867"
         r="40.545689" />
      <rect
         style="opacity:1;fill:#00285c;fill-opacity:1;fill-rule:nonzero;stroke:none;stroke-width:5;stroke-linejoin:miter;stroke-miterlimit:4;stroke-dasharray:none;stroke-opacity:1"
         id="rect5424"
         width="35.529713"
         height="85.977898"
         x="590.3266"
         y="158.8217" />
      <circle
         r="40.545689"
         cy="608.51324"
         cx="-131.96756"
         id="circle5426"
         style="opacity:1;fill:#ffcd06;fill-opacity:1;fill-rule:nonzero;stroke:none;stroke-width:5;stroke-linejoin:miter;stroke-miterlimit:4;stroke-dasharray:none;stroke-opacity:1"
         transform="matrix(0,-1,1,0,0,0)" />
      <rect
         style="opacity:1;fill:#00285c;fill-opacity:1;fill-rule:nonzero;stroke:none;stroke-width:5;stroke-linejoin:miter;stroke-miterlimit:4;stroke-dasharray:none;stroke-opacity:1"
         id="rect5428"
         width="35.529713"
         height="170.54269"
         x="-490.18201"
         y="-967.67334"
         transform="matrix(0,-1,-1,0,0,0)" />
      <rect
         y="319.37115"
         x="-967.69977"
         height="170.54269"
         width="35.529713"
         id="rect5430"
         style="opacity:1;fill:#00285c;fill-opacity:1;fill-rule:nonzero;stroke:none;stroke-width:5;stroke-linejoin:miter;stroke-miterlimit:4;stroke-dasharray:none;stroke-opacity:1"
         transform="scale(-1,1)" />
      <circle
         style="opacity:1;fill:#ffcd06;fill-opacity:1;fill-rule:nonzero;stroke:none;stroke-width:5;stroke-linejoin:miter;stroke-miterlimit:4;stroke-dasharray:none;stroke-opacity:1"
         id="circle5432"
         cx="-320.94086"
         cy="-949.51343"
         r="40.545689"
         transform="matrix(0,-1,-1,0,0,0)" />
      <rect
         transform="scale(1,-1)"
         style="opacity:1;fill:#00285c;fill-opacity:1;fill-rule:nonzero;stroke:none;stroke-width:5;stroke-linejoin:miter;stroke-miterlimit:4;stroke-dasharray:none;stroke-opacity:1"
         id="rect5436"
         width="35.529713"
         height="170.54269"
         x="353.22961"
         y="-1013.386" />
      <circle
         r="40.545689"
         cy="371.41583"
         cx="1011.8165"
         id="circle5438"
         style="opacity:1;fill:#ffcd06;fill-opacity:1;fill-rule:nonzero;stroke:none;stroke-width:5;stroke-linejoin:miter;stroke-miterlimit:4;stroke-dasharray:none;stroke-opacity:1"
         transform="matrix(0,1,1,0,0,0)" />
      <rect
         style="opacity:1;fill:#00285c;fill-opacity:1;fill-rule:nonzero;stroke:none;stroke-width:5;stroke-linejoin:miter;stroke-miterlimit:4;stroke-dasharray:none;stroke-opacity:1"
         id="rect5440"
         width="35.529713"
         height="170.54269"
         x="-590.92242"
         y="35.297184"
         transform="matrix(0,-1,1,0,0,0)" />
      <rect
         y="420.11157"
         x="35.270729"
         height="170.54269"
         width="35.529713"
         id="rect5442"
         style="opacity:1;fill:#00285c;fill-opacity:1;fill-rule:nonzero;stroke:none;stroke-width:5;stroke-linejoin:miter;stroke-miterlimit:4;stroke-dasharray:none;stroke-opacity:1" />
      <circle
         style="opacity:1;fill:#ffcd06;fill-opacity:1;fill-rule:nonzero;stroke:none;stroke-width:5;stroke-linejoin:miter;stroke-miterlimit:4;stroke-dasharray:none;stroke-opacity:1"
         id="circle5444"
         cx="-421.68127"
         cy="53.45705"
         r="40.545689"
         transform="matrix(0,-1,1,0,0,0)" />
      <rect
         y="32.385838"
         x="644.89838"
         height="170.54269"
         width="35.529713"
         id="rect5446"
         style="opacity:1;fill:#00285c;fill-opacity:1;fill-rule:nonzero;stroke:none;stroke-width:5;stroke-linejoin:miter;stroke-miterlimit:4;stroke-dasharray:none;stroke-opacity:1"
         transform="matrix(0,1,1,0,0,0)" />
      <rect
         transform="scale(1,-1)"
         style="opacity:1;fill:#00285c;fill-opacity:1;fill-rule:nonzero;stroke:none;stroke-width:5;stroke-linejoin:miter;stroke-miterlimit:4;stroke-dasharray:none;stroke-opacity:1"
         id="rect5448"
         width="35.529713"
         height="170.54269"
         x="32.359383"
         y="-815.70929" />
      <circle
         r="40.545689"
         cy="50.545689"
         cx="814.13953"
         id="circle5450"
         style="opacity:1;fill:#ffcd06;fill-opacity:1;fill-rule:nonzero;stroke:none;stroke-width:5;stroke-linejoin:miter;stroke-miterlimit:4;stroke-dasharray:none;stroke-opacity:1"
         transform="matrix(0,1,1,0,0,0)" />
      <rect
         style="opacity:1;fill:#00285c;fill-opacity:1;fill-rule:nonzero;stroke:none;stroke-width:5;stroke-linejoin:miter;stroke-miterlimit:4;stroke-dasharray:none;stroke-opacity:1"
         id="rect5452"
         width="35.529713"
         height="85.271301"
         x="-673.33099"
         y="-926.49762"
         transform="scale(-1,-1)" />
      <rect
         y="502.52014"
         x="-926.52411"
         height="170.54269"
         width="35.529713"
         id="rect5454"
         style="opacity:1;fill:#00285c;fill-opacity:1;fill-rule:nonzero;stroke:none;stroke-width:5;stroke-linejoin:miter;stroke-miterlimit:4;stroke-dasharray:none;stroke-opacity:1"
         transform="matrix(0,-1,1,0,0,0)" />
      <circle
         style="opacity:1;fill:#ffcd06;fill-opacity:1;fill-rule:nonzero;stroke:none;stroke-width:5;stroke-linejoin:miter;stroke-miterlimit:4;stroke-dasharray:none;stroke-opacity:1"
         id="circle5456"
         cx="-504.08984"
         cy="-908.33728"
         r="40.545689"
         transform="scale(-1,-1)" />
      <rect
         y="-880.39905"
         x="626.71216"
         height="85.271301"
         width="35.529713"
         id="rect5458"
         style="opacity:1;fill:#00285c;fill-opacity:1;fill-rule:nonzero;stroke:none;stroke-width:5;stroke-linejoin:miter;stroke-miterlimit:4;stroke-dasharray:none;stroke-opacity:1"
         transform="matrix(0,1,-1,0,0,0)" />
      <circle
         style="opacity:1;fill:#ffcd06;fill-opacity:1;fill-rule:nonzero;stroke:none;stroke-width:5;stroke-linejoin:miter;stroke-miterlimit:4;stroke-dasharray:none;stroke-opacity:1"
         id="circle5460"
         cx="907.2533"
         cy="644.8988"
         r="40.545689" />
    </g>
  </g>
</svg>
