<?xml version="1.0" encoding="UTF-8"?>
<!-- Created with Inkscape (http://www.inkscape.org/) -->
<svg width="500" height="500" version="1.1" viewBox="0 0 132.29 132.29" xmlns="http://www.w3.org/2000/svg" xmlns:cc="http://creativecommons.org/ns#" xmlns:dc="http://purl.org/dc/elements/1.1/" xmlns:rdf="http://www.w3.org/1999/02/22-rdf-syntax-ns#">
 <metadata>
  <rdf:RDF>
   <cc:Work rdf:about="">
    <dc:format>image/svg+xml</dc:format>
    <dc:type rdf:resource="http://purl.org/dc/dcmitype/StillImage"/>
    <dc:title/>
   </cc:Work>
  </rdf:RDF>
 </metadata>
 <g transform="translate(0 -164.71)">
  <g>
   <path d="m106.97 209.68-40.815 42.381-40.815-42.381z" fill="#4a4a4a"/>
   <rect x="51.582" y="164.71" width="29.153" height="47.182" fill="#4a4a4a"/>
   <g>
    <rect transform="rotate(90)" x="258.33" y="-96.934" width="37.678" height="81.22" ry="0" fill="#8d8d8d" stroke="#292929" stroke-width="1.9934"/>
    <rect transform="rotate(90)" x="266.11" y="-116.58" width="22.11" height="28.062" fill="#bfbfbf" stroke="#545454" stroke-width="1.9934"/>
    <rect transform="rotate(90)" x="269.62" y="-112.02" width="5.7395" height="5.7395" fill="#414141"/>
    <rect transform="rotate(90)" x="278.97" y="-112.02" width="5.7395" height="5.7395" fill="#414141"/>
   </g>
  </g>
  <path d="m28.022 275.8c0.19319-0.81939 0.85149-1.9394 1.5513-2.6392 1.8011-1.8012 4.4638-2.2001 6.781-1.016 1.2124 0.61955 2.3216 1.9464 2.7419 3.2796l0.20396 0.64704h1.1384l1.7595-2.098c4.0435-4.8215 6.4537-7.3019 7.6802-7.9043l0.68231-0.33507 7.1699-0.0736 0.14562-0.35154c0.21337-0.51511 1.1901-1.3758 1.8452-1.626 0.8258-0.31537 2.1676-0.21549 2.9042 0.2162 1.0876 0.63736 1.6902 1.6954 1.6976 2.9804 0.0077 1.377-0.62333 2.3919-1.8776 3.0186-1.3995 0.69931-2.9871 0.41922-4.0015-0.70593-0.25242-0.28-0.51959-0.64218-0.5937-0.80484l-0.13476-0.2958h-6.6956l-0.47152 0.34463c-0.90932 0.66459-5.8169 6.0121-6.7819 7.3898l-0.17177 0.24523h28.305v-1.3299c0-0.85936 0.04551-1.33 0.12864-1.33 0.25448 0 6.6562 3.7821 6.5596 3.8753-0.19273 0.18595-6.4202 3.7416-6.5532 3.7416-0.09125 0-0.13506-0.43102-0.13506-1.33v-1.3299h-11.184c-6.151 0-11.184 0.0336-11.184 0.0748 0 0.17617 3.7015 4.3558 5.1978 5.8693 1.3008 1.3157 1.7317 1.6786 2.1169 1.7827 0.27956 0.0756 1.6442 0.13098 3.2342 0.13138l2.7506 4.5e-4v-2.1763h6.8916v6.7706l-0.54407 8e-3c-0.29925 4e-3 -1.7138 8e-3 -3.1435 8e-3 -1.4297 0-2.7355-3e-3 -2.9017-8e-3 -0.3007-8e-3 -0.30226-0.0132-0.30226-1.1558v-1.1486h-6.4902l-0.72825-0.3639c-1.2721-0.63567-3.5235-2.9418-7.5819-7.7663l-1.7031-2.0245-7.0346-9.1e-4 -0.15366 0.51384c-0.56408 1.8863-2.1335 3.4017-4.0558 3.9159-0.71364 0.19092-2.0809 0.20855-2.8274 0.0365-0.95842-0.22096-1.8623-0.7487-2.676-1.5623-0.81364-0.81363-1.3413-1.7176-1.5623-2.676-0.14682-0.63679-0.14526-2.1683 0.0028-2.7966z" fill-opacity=".58333" stroke-width=".15216"/>
 </g>
</svg>
