<?xml version="1.0" encoding="UTF-8"?>
<!-- Created with Inkscape (http://www.inkscape.org/) -->
<svg width="1e3" height="875" version="1.1" viewBox="0 0 1e3 875" xmlns="http://www.w3.org/2000/svg" xmlns:cc="http://creativecommons.org/ns#" xmlns:dc="http://purl.org/dc/elements/1.1/" xmlns:rdf="http://www.w3.org/1999/02/22-rdf-syntax-ns#">
 <metadata>
  <rdf:RDF>
   <cc:Work rdf:about="">
    <dc:format>image/svg+xml</dc:format>
    <dc:type rdf:resource="http://purl.org/dc/dcmitype/StillImage"/>
    <dc:title/>
   </cc:Work>
  </rdf:RDF>
 </metadata>
 <g transform="translate(0 -177.36)">
  <g transform="matrix(.45125 0 0 .45125 639.89 -53.753)" stroke="#292929">
   <rect x="70.144" y="683.27" width="259.71" height="338.15" ry="66.822" fill="#c4c4c4" stroke-linecap="round" stroke-width="8.2879"/>
   <circle cx="200" cy="815.13" r="98.08" fill="none" stroke-linecap="round" stroke-width="8.109"/>
   <g>
    <path d="m178.97 861.17c-8.2131 9.7845 82.835 106.32 89.818 106.32 18.648 0 34.699-25.382 33.809-44.215-0.31635-6.6948-115.41-71.885-123.63-62.1z" fill="#c4c4c4" fill-rule="evenodd" stroke-width="8.172"/>
    <circle cx="200" cy="813.69" r="20.314" fill="#797979" stroke-linecap="round" stroke-width="8.3973"/>
    <rect x="70.144" y="683.27" width="259.71" height="338.15" ry="66.822" fill="#787878" stroke-linecap="round" stroke-width="8.2879"/>
   </g>
   <circle cx="200" cy="815.13" r="98.08" fill="none" stroke-linecap="round" stroke-width="8.109"/>
   <g>
    <path d="m178.97 861.17c-8.2131 9.7845 82.835 106.32 89.818 106.32 18.648 0 34.699-25.382 33.809-44.215-0.31635-6.6948-115.41-71.885-123.63-62.1z" fill="#c4c4c4" fill-rule="evenodd" stroke-width="8.172"/>
    <circle cx="200" cy="813.69" r="20.314" fill="#797979" stroke-linecap="round" stroke-width="8.3973"/>
    <rect x="120.14" y="633.27" width="259.71" height="338.15" ry="66.822" fill="#c4c4c4" stroke-linecap="round" stroke-width="8.2879"/>
   </g>
   <circle cx="250" cy="765.13" r="98.08" fill="none" stroke-linecap="round" stroke-width="8.109"/>
   <g>
    <path d="m228.97 811.17c-8.2131 9.7845 82.835 106.32 89.818 106.32 18.648 0 34.699-25.382 33.809-44.215-0.31635-6.6948-115.41-71.885-123.63-62.1z" fill="#c4c4c4" fill-rule="evenodd" stroke-width="8.172"/>
    <circle cx="250" cy="763.69" r="20.314" fill="#797979" stroke-linecap="round" stroke-width="8.3973"/>
    <rect x="120.14" y="633.27" width="259.71" height="338.15" ry="66.822" fill="#969696" stroke-linecap="round" stroke-width="8.2879"/>
   </g>
   <circle cx="250" cy="765.13" r="98.08" fill="none" stroke-linecap="round" stroke-width="8.109"/>
   <g>
    <path d="m228.97 811.17c-8.2131 9.7845 82.835 106.32 89.818 106.32 18.648 0 34.699-25.382 33.809-44.215-0.31635-6.6948-115.41-71.885-123.63-62.1z" fill="#c4c4c4" fill-rule="evenodd" stroke-width="8.172"/>
    <circle cx="250" cy="763.69" r="20.314" fill="#797979" stroke-linecap="round" stroke-width="8.3973"/>
    <rect x="170.14" y="583.27" width="259.71" height="338.15" ry="66.822" fill="#c4c4c4" stroke-linecap="round" stroke-width="8.2879"/>
   </g>
   <circle cx="300" cy="715.13" r="98.08" fill="none" stroke-linecap="round" stroke-width="8.109"/>
   <g>
    <path d="m278.97 761.17c-8.2131 9.7845 82.835 106.32 89.818 106.32 18.648 0 34.699-25.382 33.809-44.215-0.31635-6.6948-115.41-71.885-123.63-62.1z" fill="#c4c4c4" fill-rule="evenodd" stroke-width="8.172"/>
    <circle cx="300" cy="713.69" r="20.314" fill="#797979" stroke-linecap="round" stroke-width="8.3973"/>
    <rect x="170.14" y="583.27" width="259.71" height="338.15" ry="66.822" fill="#c4c4c4" stroke-linecap="round" stroke-width="8.2879"/>
   </g>
   <circle cx="300" cy="715.13" r="98.08" fill="none" stroke-linecap="round" stroke-width="8.109"/>
   <path d="m278.97 761.17c-8.2131 9.7845 82.835 106.32 89.818 106.32 18.648 0 34.699-25.382 33.809-44.215-0.31635-6.6948-115.41-71.885-123.63-62.1z" fill="#c4c4c4" fill-rule="evenodd" stroke-width="8.172"/>
   <circle cx="300" cy="713.69" r="20.314" fill="#797979" stroke-linecap="round" stroke-width="8.3973"/>
  </g>
  <g transform="matrix(.45125 0 0 .45125 387.19 58.877)" stroke="#292929">
   <rect x="120.14" y="633.29" width="259.71" height="338.15" ry="66.822" fill="#c4c4c4" stroke-linecap="round" stroke-width="8.2879"/>
   <circle cx="250" cy="765.15" r="98.08" fill="none" stroke-linecap="round" stroke-width="8.109"/>
   <path d="m228.97 811.19c-8.2131 9.7845 82.835 106.32 89.818 106.32 18.648 0 34.699-25.382 33.809-44.215-0.31635-6.6948-115.41-71.885-123.63-62.1z" fill="#c4c4c4" fill-rule="evenodd" stroke-width="8.172"/>
   <circle cx="250" cy="763.71" r="20.314" fill="#797979" stroke-linecap="round" stroke-width="8.3973"/>
  </g>
  <g transform="matrix(.45125 0 0 .45125 134.53 398.48)">
   <g transform="translate(0 -552.36)">
    <path d="m387.16 764.69v144.09c0 37.02-29.803 66.822-66.822 66.822h-126.07c-37.02 0-66.822-29.803-66.822-66.822v-75.515" fill="#c4c4c4" stroke="#292929" stroke-width="8.2879"/>
    <path d="m127.45 823.65v-127.7c0-37.02 29.803-66.822 66.822-66.822h126.07c37.02 0 66.822 29.803 66.822 66.822v58.911" fill="none" stroke="#000" stroke-dasharray="33.15200043, 16.57600021" stroke-width="8.288"/>
   </g>
   <path d="m355.31 220.77c-2.0082 52.396-45.119 94.257-98.007 94.257-35.094 0-65.883-18.432-83.215-46.143" fill="none" stroke="#292929" stroke-linecap="round" stroke-width="8.109"/>
   <g>
    <path d="m236.28 262.99c-8.2131 9.7845 82.835 106.32 89.818 106.32 18.648 0 34.699-25.382 33.809-44.215-0.31635-6.6948-115.41-71.885-123.63-62.1z" fill="#c4c4c4" fill-rule="evenodd" stroke="#292929" stroke-width="8.172"/>
    <path d="m420.84 198.55-341.66 90.213" fill="none" stroke="#000" stroke-dasharray="40, 20" stroke-width="10"/>
    <path d="m172.28 265.02c-8.8239-14.72-13.897-31.946-13.897-50.356 0-54.168 43.912-98.08 98.08-98.08s98.08 43.912 98.08 98.08c0 0.671-7e-3 1.3404-0.0202 2.0082" fill="none" stroke="#000" stroke-dasharray="32.43600082, 16.21800041" stroke-width="8.109"/>
   </g>
  </g>
  <g>
   <rect x="164.27" y="607.58" width="166.06" height="252.7" ry="0" fill="#b3b3b3"/>
   <rect x="416.97" y="517.33" width="166.06" height="342.95" ry="0" fill="#003f91"/>
   <rect x="669.67" y="427.08" width="166.06" height="433.2" ry="0" fill="#e9ba00"/>
  </g>
  <path d="m764.9 865.57v32.078h-600.63v35.644h600.63v32.078l70.832-49.9-70.832-49.9z" fill="#303030" fill-opacity=".595"/>
  <g stroke-width="1px" aria-label="Size and Features">
   <path d="m236.47 973.31v10.801q-4.2041-1.8799-8.2031-2.8369-3.999-0.95703-7.5537-0.95703-4.7168 0-6.9726 1.2988-2.2559 1.2988-2.2559 4.0332 0 2.0508 1.5039 3.2129 1.5381 1.1279 5.5371 1.9482l5.6055 1.1279q8.5107 1.709 12.1 5.1953t3.5889 9.9121q0 8.4424-5.0244 12.578-4.9902 4.1016-15.278 4.1016-4.8535 0-9.7412-0.9229-4.8877-0.9228-9.7754-2.7343v-11.108q4.8877 2.5976 9.4336 3.9306 4.5801 1.2988 8.8184 1.2988 4.3066 0 6.5967-1.4355 2.29-1.4355 2.29-4.1016 0-2.3925-1.5723-3.6914-1.5381-1.2988-6.1865-2.3242l-5.0928-1.1279q-7.6562-1.6406-11.211-5.2295-3.5205-3.5889-3.5205-9.6728 0-7.6221 4.9219-11.724 4.9219-4.1016 14.15-4.1016 4.2041 0 8.6475 0.64942 4.4434 0.61523 9.1943 1.8799z"/>
   <path d="m250.86 984.45h12.236v38.281h-12.236zm0-14.902h12.236v9.9805h-12.236z"/>
   <path d="m273.05 984.45h33.394v8.5449l-20.166 20.986h20.166v8.75h-34.248v-8.545l20.166-20.986h-19.312z"/>
   <path d="m353.88 1003.5v3.4863h-28.608q0.44433 4.3067 3.1104 6.46 2.666 2.1533 7.4512 2.1533 3.8623 0 7.8955-1.1279 4.0674-1.1621 8.3398-3.4863v9.4336q-4.3408 1.6406-8.6816 2.4609-4.3408 0.8545-8.6816 0.8545-10.391 0-16.167-5.2637-5.7422-5.2978-5.7422-14.834 0-9.3652 5.6396-14.731 5.6738-5.3662 15.586-5.3662 9.0234 0 14.424 5.4346 5.4346 5.4346 5.4346 14.526zm-12.578-4.0674q0-3.4863-2.0508-5.6055-2.0166-2.1533-5.2978-2.1533-3.5547 0-5.7764 2.0166-2.2217 1.9824-2.7686 5.7422z"/>
   <path d="m404.6 1005.5q-3.8281 0-5.7764 1.2988-1.9141 1.2989-1.9141 3.8282 0 2.3242 1.5381 3.6572 1.5723 1.2988 4.3408 1.2988 3.4522 0 5.8106-2.4609 2.3584-2.4951 2.3584-6.2207v-1.4014zm18.696-4.6143v21.841h-12.339v-5.6739q-2.4609 3.4864-5.5371 5.0928-3.0762 1.5723-7.4854 1.5723-5.9473 0-9.6728-3.4522-3.6914-3.4863-3.6914-9.0234 0-6.7334 4.6143-9.8779 4.6484-3.1446 14.561-3.1446h7.2119v-0.95703q0-2.9053-2.29-4.2383-2.29-1.3672-7.1436-1.3672-3.9307 0-7.3144 0.78614-3.3838 0.78613-6.2891 2.3584v-9.3311q3.9307-0.95703 7.8955-1.4356 3.9648-0.51269 7.9297-0.51269 10.356 0 14.937 4.1016 4.6143 4.0674 4.6143 13.262z"/>
   <path d="m473.24 999.42v23.311h-12.305v-17.842q0-4.9561-0.23926-6.836-0.20508-1.8799-0.75195-2.7686-0.71778-1.1963-1.9482-1.8457-1.2305-0.6836-2.8027-0.6836-3.8281 0-6.0156 2.9736-2.1875 2.9394-2.1875 8.169v18.833h-12.236v-38.281h12.236v5.6055q2.7686-3.3496 5.8789-4.9219 3.1104-1.6064 6.8701-1.6064 6.6309 0 10.049 4.0674 3.4521 4.0674 3.4521 11.826z"/>
   <path d="m510.7 990.06v-20.508h12.305v53.184h-12.305v-5.5371q-2.5293 3.3837-5.5713 4.956t-7.041 1.5723q-7.0752 0-11.621-5.6055-4.5459-5.6396-4.5459-14.492 0-8.8525 4.5459-14.458 4.5459-5.6396 11.621-5.6396 3.9648 0 7.0068 1.6064 3.0762 1.5723 5.6055 4.9219zm-8.0664 24.78q3.9307 0 5.9814-2.8711 2.085-2.8711 2.085-8.3399 0-5.4687-2.085-8.3398-2.0508-2.8711-5.9814-2.8711-3.8965 0-5.9814 2.8711-2.0508 2.8711-2.0508 8.3398 0 5.4688 2.0508 8.3399 2.085 2.8711 5.9814 2.8711z"/>
   <path d="m559.71 971.7h35.513v9.9463h-22.354v9.502h21.021v9.9463h-21.021v21.636h-13.159z"/>
   <path d="m642.36 1003.5v3.4863h-28.608q0.44434 4.3067 3.1104 6.46 2.666 2.1533 7.4512 2.1533 3.8623 0 7.8955-1.1279 4.0674-1.1621 8.3398-3.4863v9.4336q-4.3408 1.6406-8.6816 2.4609-4.3408 0.8545-8.6816 0.8545-10.391 0-16.167-5.2637-5.7422-5.2978-5.7422-14.834 0-9.3652 5.6396-14.731 5.6738-5.3662 15.586-5.3662 9.0234 0 14.424 5.4346 5.4346 5.4346 5.4346 14.526zm-12.578-4.0674q0-3.4863-2.0508-5.6055-2.0166-2.1533-5.2978-2.1533-3.5547 0-5.7764 2.0166-2.2217 1.9824-2.7686 5.7422z"/>
   <path d="m668.75 1005.5q-3.8281 0-5.7764 1.2988-1.9141 1.2989-1.9141 3.8282 0 2.3242 1.5381 3.6572 1.5723 1.2988 4.3408 1.2988 3.4522 0 5.8106-2.4609 2.3584-2.4951 2.3584-6.2207v-1.4014zm18.696-4.6143v21.841h-12.339v-5.6739q-2.4609 3.4864-5.5371 5.0928-3.0762 1.5723-7.4854 1.5723-5.9473 0-9.6728-3.4522-3.6914-3.4863-3.6914-9.0234 0-6.7334 4.6143-9.8779 4.6484-3.1446 14.561-3.1446h7.2119v-0.95703q0-2.9053-2.29-4.2383-2.29-1.3672-7.1436-1.3672-3.9307 0-7.3144 0.78614-3.3838 0.78613-6.2891 2.3584v-9.3311q3.9307-0.95703 7.8955-1.4356 3.9648-0.51269 7.9297-0.51269 10.356 0 14.937 4.1016 4.6143 4.0674 4.6143 13.262z"/>
   <path d="m712.26 973.58v10.869h12.612v8.75h-12.612v16.235q0 2.666 1.0596 3.623 1.0596 0.9229 4.2041 0.9229h6.2891v8.75h-10.493q-7.2461 0-10.288-3.0078-3.0078-3.042-3.0078-10.288v-16.235h-6.084v-8.75h6.084v-10.869z"/>
   <path d="m731.98 1007.8v-23.379h12.305v3.8281q0 3.1104-0.0342 7.8272-0.0342 4.6826-0.0342 6.2549 0 4.6142 0.23925 6.665 0.23926 2.0166 0.82032 2.9395 0.75195 1.1963 1.9482 1.8457 1.2305 0.6494 2.8027 0.6494 3.8281 0 6.0156-2.9395 2.1875-2.9394 2.1875-8.1689v-18.901h12.236v38.281h-12.236v-5.5371q-2.7686 3.3496-5.8789 4.956-3.0762 1.5723-6.8018 1.5723-6.6308 0-10.117-4.0674-3.4522-4.0674-3.4522-11.826z"/>
   <path d="m810.73 994.88q-1.6064-0.75195-3.2129-1.0938-1.5723-0.37597-3.1787-0.37597-4.7168 0-7.2803 3.042-2.5293 3.0078-2.5293 8.6475v17.637h-12.236v-38.281h12.236v6.2891q2.3584-3.7598 5.4004-5.4688 3.0762-1.7432 7.3486-1.7432 0.61523 0 1.333 0.0684 0.71777 0.0342 2.085 0.20508z"/>
   <path d="m855.09 1003.5v3.4863h-28.608q0.44434 4.3067 3.1104 6.46 2.666 2.1533 7.4512 2.1533 3.8623 0 7.8955-1.1279 4.0674-1.1621 8.3398-3.4863v9.4336q-4.3408 1.6406-8.6816 2.4609-4.3408 0.8545-8.6816 0.8545-10.391 0-16.167-5.2637-5.7422-5.2978-5.7422-14.834 0-9.3652 5.6396-14.731 5.6738-5.3662 15.586-5.3662 9.0234 0 14.424 5.4346 5.4346 5.4346 5.4346 14.526zm-12.578-4.0674q0-3.4863-2.0508-5.6055-2.0166-2.1533-5.2978-2.1533-3.5547 0-5.7764 2.0166-2.2217 1.9824-2.7686 5.7422z"/>
   <path d="m894.23 985.65v9.2969q-3.9307-1.6406-7.5879-2.4609-3.6572-0.82032-6.9043-0.82032-3.4863 0-5.1953 0.88868-1.6748 0.85449-1.6748 2.666 0 1.4697 1.2646 2.2559 1.2988 0.78613 4.6143 1.1621l2.1533 0.30762q9.3994 1.1963 12.646 3.9307 3.2471 2.7343 3.2471 8.5791 0 6.1181-4.5117 9.1943t-13.467 3.0762q-3.794 0-7.8613-0.6153-4.0332-0.581-8.3057-1.7773v-9.2969q3.6572 1.7774 7.4854 2.666 3.8623 0.8887 7.8271 0.8887 3.5889 0 5.4004-0.9912 1.8115-0.9912 1.8115-2.9394 0-1.6407-1.2646-2.4268-1.2305-0.8203-4.9561-1.2647l-2.1533-0.2734q-8.1689-1.0254-11.45-3.7939-3.2812-2.7686-3.2812-8.4082 0-6.084 4.1699-9.0234t12.783-2.9394q3.3838 0 7.1094 0.51269 3.7256 0.5127 8.1006 1.6064z"/>
  </g>
 </g>
</svg>
