<?xml version="1.0" encoding="UTF-8" standalone="no"?>
<!-- Created with Inkscape (http://www.inkscape.org/) -->

<svg
   xmlns:dc="http://purl.org/dc/elements/1.1/"
   xmlns:cc="http://creativecommons.org/ns#"
   xmlns:rdf="http://www.w3.org/1999/02/22-rdf-syntax-ns#"
   xmlns:svg="http://www.w3.org/2000/svg"
   xmlns="http://www.w3.org/2000/svg"
   xmlns:sodipodi="http://sodipodi.sourceforge.net/DTD/sodipodi-0.dtd"
   xmlns:inkscape="http://www.inkscape.org/namespaces/inkscape"
   width="1000"
   height="875"
   viewBox="0 0 1000 875.00001"
   id="svg2"
   version="1.1"
   inkscape:version="0.91 r13725"
   sodipodi:docname="Portable.svg">
  <defs
     id="defs4" />
  <sodipodi:namedview
     id="base"
     pagecolor="#ffffff"
     bordercolor="#666666"
     borderopacity="1.0"
     inkscape:pageopacity="0.0"
     inkscape:pageshadow="2"
     inkscape:zoom="0.81980192"
     inkscape:cx="643.81146"
     inkscape:cy="460.2645"
     inkscape:document-units="px"
     inkscape:current-layer="layer1"
     showgrid="false"
     units="px"
     inkscape:window-width="1877"
     inkscape:window-height="1018"
     inkscape:window-x="1920"
     inkscape:window-y="34"
     inkscape:window-maximized="1" />
  <metadata
     id="metadata7">
    <rdf:RDF>
      <cc:Work
         rdf:about="">
        <dc:format>image/svg+xml</dc:format>
        <dc:type
           rdf:resource="http://purl.org/dc/dcmitype/StillImage" />
        <dc:title></dc:title>
      </cc:Work>
    </rdf:RDF>
  </metadata>
  <g
     inkscape:label="Layer 1"
     inkscape:groupmode="layer"
     id="layer1"
     transform="translate(0,-177.36216)">
    <g
       transform="matrix(0.46425771,0,0,0.46425752,267.85742,208.58062)"
       id="layer1-6"
       inkscape:label="Layer 1">
      <path
         id="rect5371"
         d="m 297.82855,243.80923 c 50.38752,0 100.40295,0 100.40295,0 l 100.40241,0 100.40348,0 c 0,0 44.41878,0.0249 100.40091,0 55.98214,-0.0249 100.40572,50.01444 100.40572,100.40195 0,50.3875 0,100.40295 0,100.40295 l 0,100.40237 0,100.40352 c 0,0 -0.0249,45.95101 0,100.40088 0.0249,54.44986 -50.01442,100.40572 -100.40195,100.40572 -50.38749,0 -100.40295,0 -100.40295,0 l -100.40237,0 -100.40352,0 c 0,0 -45.18491,-0.0249 -100.40092,0 -55.21597,0.0249 -100.40568,-50.01446 -100.40568,-100.40195 0,-50.38753 0,-100.40294 0,-100.40294 l 0,-100.40238 0,-100.40351 c 0,0 0.0249,-46.7172 0,-100.40089 -0.0249,-53.68372 50.01443,-100.40572 100.40192,-100.40572 z"
         style="opacity:1;fill:#00285c;fill-opacity:1;fill-rule:nonzero;stroke:none;stroke-width:5;stroke-linejoin:miter;stroke-miterlimit:4;stroke-dasharray:none;stroke-opacity:1"
         inkscape:connector-curvature="0"
         sodipodi:nodetypes="zccczzccczzccczzccczz" />
      <path
         sodipodi:nodetypes="zccczzccczzccczzccczz"
         inkscape:connector-curvature="0"
         style="opacity:1;fill:#ffcd06;fill-opacity:1;fill-rule:nonzero;stroke:none;stroke-width:5;stroke-linejoin:miter;stroke-miterlimit:4;stroke-dasharray:none;stroke-opacity:1"
         d="m 364.09479,343.20811 c 33.75963,0 67.26997,0 67.26997,0 l 67.26961,0 67.27035,0 c 0,0 29.76058,0.0177 67.26862,0 37.508,-0.0177 67.2718,33.50967 67.2718,67.26929 0,33.75962 0,67.27 0,67.27 l 0,67.26956 0,67.27036 c 0,0 -0.0177,30.78718 0,67.26861 0.0177,36.48138 -33.50967,67.27182 -67.26928,67.27182 -33.75962,0 -67.27,0 -67.27,0 l -67.26957,0 -67.27036,0 c 0,0 -30.27391,-0.0177 -67.26861,0 -36.99471,0.0177 -67.27182,-33.50967 -67.27182,-67.26929 0,-33.75965 0,-67.27 0,-67.27 l 0,-67.26958 0,-67.27034 c 0,0 0.0177,-31.30054 0,-67.26861 -0.0177,-35.96809 33.50968,-67.27182 67.26929,-67.27182 z"
         id="path5396" />
      <rect
         style="opacity:1;fill:#00285c;fill-opacity:1;fill-rule:nonzero;stroke:none;stroke-width:5;stroke-linejoin:miter;stroke-miterlimit:4;stroke-dasharray:none;stroke-opacity:1"
         id="rect5398"
         width="35.529713"
         height="170.54269"
         x="343.97589"
         y="74.746384" />
      <rect
         y="-429.51544"
         x="74.719917"
         height="85.271301"
         width="35.529713"
         id="rect5400"
         style="opacity:1;fill:#00285c;fill-opacity:1;fill-rule:nonzero;stroke:none;stroke-width:5;stroke-linejoin:miter;stroke-miterlimit:4;stroke-dasharray:none;stroke-opacity:1"
         transform="matrix(0,1,-1,0,0,0)" />
      <circle
         style="opacity:1;fill:#ffcd06;fill-opacity:1;fill-rule:nonzero;stroke:none;stroke-width:5;stroke-linejoin:miter;stroke-miterlimit:4;stroke-dasharray:none;stroke-opacity:1"
         id="path5420"
         cx="456.36963"
         cy="92.907867"
         r="40.545689" />
      <rect
         style="opacity:1;fill:#00285c;fill-opacity:1;fill-rule:nonzero;stroke:none;stroke-width:5;stroke-linejoin:miter;stroke-miterlimit:4;stroke-dasharray:none;stroke-opacity:1"
         id="rect5424"
         width="35.529713"
         height="85.977898"
         x="590.3266"
         y="158.8217" />
      <circle
         r="40.545689"
         cy="608.51324"
         cx="-131.96756"
         id="circle5426"
         style="opacity:1;fill:#ffcd06;fill-opacity:1;fill-rule:nonzero;stroke:none;stroke-width:5;stroke-linejoin:miter;stroke-miterlimit:4;stroke-dasharray:none;stroke-opacity:1"
         transform="matrix(0,-1,1,0,0,0)" />
      <rect
         style="opacity:1;fill:#00285c;fill-opacity:1;fill-rule:nonzero;stroke:none;stroke-width:5;stroke-linejoin:miter;stroke-miterlimit:4;stroke-dasharray:none;stroke-opacity:1"
         id="rect5428"
         width="35.529713"
         height="170.54269"
         x="-490.18201"
         y="-967.67334"
         transform="matrix(0,-1,-1,0,0,0)" />
      <rect
         y="319.37115"
         x="-967.69977"
         height="170.54269"
         width="35.529713"
         id="rect5430"
         style="opacity:1;fill:#00285c;fill-opacity:1;fill-rule:nonzero;stroke:none;stroke-width:5;stroke-linejoin:miter;stroke-miterlimit:4;stroke-dasharray:none;stroke-opacity:1"
         transform="scale(-1,1)" />
      <circle
         style="opacity:1;fill:#ffcd06;fill-opacity:1;fill-rule:nonzero;stroke:none;stroke-width:5;stroke-linejoin:miter;stroke-miterlimit:4;stroke-dasharray:none;stroke-opacity:1"
         id="circle5432"
         cx="-320.94086"
         cy="-949.51343"
         r="40.545689"
         transform="matrix(0,-1,-1,0,0,0)" />
      <rect
         transform="scale(1,-1)"
         style="opacity:1;fill:#00285c;fill-opacity:1;fill-rule:nonzero;stroke:none;stroke-width:5;stroke-linejoin:miter;stroke-miterlimit:4;stroke-dasharray:none;stroke-opacity:1"
         id="rect5436"
         width="35.529713"
         height="170.54269"
         x="353.22961"
         y="-1013.386" />
      <circle
         r="40.545689"
         cy="371.41583"
         cx="1011.8165"
         id="circle5438"
         style="opacity:1;fill:#ffcd06;fill-opacity:1;fill-rule:nonzero;stroke:none;stroke-width:5;stroke-linejoin:miter;stroke-miterlimit:4;stroke-dasharray:none;stroke-opacity:1"
         transform="matrix(0,1,1,0,0,0)" />
      <rect
         style="opacity:1;fill:#00285c;fill-opacity:1;fill-rule:nonzero;stroke:none;stroke-width:5;stroke-linejoin:miter;stroke-miterlimit:4;stroke-dasharray:none;stroke-opacity:1"
         id="rect5440"
         width="35.529713"
         height="170.54269"
         x="-590.92242"
         y="35.297184"
         transform="matrix(0,-1,1,0,0,0)" />
      <rect
         y="420.11157"
         x="35.270729"
         height="170.54269"
         width="35.529713"
         id="rect5442"
         style="opacity:1;fill:#00285c;fill-opacity:1;fill-rule:nonzero;stroke:none;stroke-width:5;stroke-linejoin:miter;stroke-miterlimit:4;stroke-dasharray:none;stroke-opacity:1" />
      <circle
         style="opacity:1;fill:#ffcd06;fill-opacity:1;fill-rule:nonzero;stroke:none;stroke-width:5;stroke-linejoin:miter;stroke-miterlimit:4;stroke-dasharray:none;stroke-opacity:1"
         id="circle5444"
         cx="-421.68127"
         cy="53.45705"
         r="40.545689"
         transform="matrix(0,-1,1,0,0,0)" />
      <rect
         y="32.385838"
         x="644.89838"
         height="170.54269"
         width="35.529713"
         id="rect5446"
         style="opacity:1;fill:#00285c;fill-opacity:1;fill-rule:nonzero;stroke:none;stroke-width:5;stroke-linejoin:miter;stroke-miterlimit:4;stroke-dasharray:none;stroke-opacity:1"
         transform="matrix(0,1,1,0,0,0)" />
      <rect
         transform="scale(1,-1)"
         style="opacity:1;fill:#00285c;fill-opacity:1;fill-rule:nonzero;stroke:none;stroke-width:5;stroke-linejoin:miter;stroke-miterlimit:4;stroke-dasharray:none;stroke-opacity:1"
         id="rect5448"
         width="35.529713"
         height="170.54269"
         x="32.359383"
         y="-815.70929" />
      <circle
         r="40.545689"
         cy="50.545689"
         cx="814.13953"
         id="circle5450"
         style="opacity:1;fill:#ffcd06;fill-opacity:1;fill-rule:nonzero;stroke:none;stroke-width:5;stroke-linejoin:miter;stroke-miterlimit:4;stroke-dasharray:none;stroke-opacity:1"
         transform="matrix(0,1,1,0,0,0)" />
      <rect
         style="opacity:1;fill:#00285c;fill-opacity:1;fill-rule:nonzero;stroke:none;stroke-width:5;stroke-linejoin:miter;stroke-miterlimit:4;stroke-dasharray:none;stroke-opacity:1"
         id="rect5452"
         width="35.529713"
         height="85.271301"
         x="-673.33099"
         y="-926.49762"
         transform="scale(-1,-1)" />
      <rect
         y="502.52014"
         x="-926.52411"
         height="170.54269"
         width="35.529713"
         id="rect5454"
         style="opacity:1;fill:#00285c;fill-opacity:1;fill-rule:nonzero;stroke:none;stroke-width:5;stroke-linejoin:miter;stroke-miterlimit:4;stroke-dasharray:none;stroke-opacity:1"
         transform="matrix(0,-1,1,0,0,0)" />
      <circle
         style="opacity:1;fill:#ffcd06;fill-opacity:1;fill-rule:nonzero;stroke:none;stroke-width:5;stroke-linejoin:miter;stroke-miterlimit:4;stroke-dasharray:none;stroke-opacity:1"
         id="circle5456"
         cx="-504.08984"
         cy="-908.33728"
         r="40.545689"
         transform="scale(-1,-1)" />
      <rect
         y="-880.39905"
         x="626.71216"
         height="85.271301"
         width="35.529713"
         id="rect5458"
         style="opacity:1;fill:#00285c;fill-opacity:1;fill-rule:nonzero;stroke:none;stroke-width:5;stroke-linejoin:miter;stroke-miterlimit:4;stroke-dasharray:none;stroke-opacity:1"
         transform="matrix(0,1,-1,0,0,0)" />
      <circle
         style="opacity:1;fill:#ffcd06;fill-opacity:1;fill-rule:nonzero;stroke:none;stroke-width:5;stroke-linejoin:miter;stroke-miterlimit:4;stroke-dasharray:none;stroke-opacity:1"
         id="circle5460"
         cx="907.2533"
         cy="644.8988"
         r="40.545689" />
    </g>
    <rect
       style="opacity:1;fill:#8d8d8d;fill-opacity:1;fill-rule:nonzero;stroke:#292929;stroke-width:13.10091877;stroke-linecap:butt;stroke-linejoin:miter;stroke-miterlimit:4;stroke-dasharray:none;stroke-dashoffset:0;stroke-opacity:1"
       id="rect3429"
       width="247.63065"
       height="533.79456"
       x="742.65308"
       y="-739.61102"
       ry="0"
       transform="matrix(0,1,-1,0,0,0)" />
    <rect
       style="opacity:1;fill:#bfbfbf;fill-opacity:1;fill-rule:nonzero;stroke:#545454;stroke-width:13.10091877;stroke-linecap:butt;stroke-linejoin:miter;stroke-miterlimit:4;stroke-dasharray:none;stroke-dashoffset:0;stroke-opacity:1"
       id="rect4231"
       width="145.31079"
       height="184.43301"
       x="793.81293"
       y="-868.71558"
       transform="matrix(0,1,-1,0,0,0)" />
    <rect
       style="opacity:1;fill:#414141;fill-opacity:1;fill-rule:nonzero;stroke:none;stroke-width:8.39700031;stroke-linecap:butt;stroke-linejoin:miter;stroke-miterlimit:4;stroke-dasharray:none;stroke-dashoffset:0;stroke-opacity:1"
       id="rect4233"
       width="37.721138"
       height="37.721153"
       x="816.87189"
       y="-838.77826"
       transform="matrix(0,1,-1,0,0,0)" />
    <rect
       y="-838.77826"
       x="878.34357"
       height="37.721153"
       width="37.721138"
       id="rect4235"
       style="opacity:1;fill:#414141;fill-opacity:1;fill-rule:nonzero;stroke:none;stroke-width:8.39700031;stroke-linecap:butt;stroke-linejoin:miter;stroke-miterlimit:4;stroke-dasharray:none;stroke-dashoffset:0;stroke-opacity:1"
       transform="matrix(0,1,-1,0,0,0)" />
    <path
       style="fill:#000000;fill-opacity:0.58333333"
       d="m 286.7067,857.48121 c 1.26971,-5.38526 5.59619,-12.74614 10.19535,-17.34517 11.83758,-11.83767 29.33739,-14.4596 44.56633,-6.67717 7.96785,4.07183 15.25831,12.79199 18.02042,21.55437 l 1.34049,4.25252 3.74099,0 3.74103,0 11.56368,-13.78844 c 26.57512,-31.68797 42.41514,-47.99015 50.47606,-51.94876 l 4.4843,-2.20219 23.5612,-0.24197 23.56114,-0.24198 0.95704,-2.31038 c 1.40231,-3.38543 7.8216,-9.04209 12.12717,-10.68645 5.4274,-2.07271 14.24571,-1.41628 19.08695,1.42087 7.14783,4.18892 11.10857,11.14261 11.1573,19.58827 0.0525,9.04988 -4.09663,15.71993 -12.34021,19.83927 -9.19755,4.59605 -19.63217,2.75523 -26.29857,-4.63953 -1.65895,-1.84019 -3.41484,-4.22051 -3.90199,-5.28964 l -0.88562,-1.94392 -22.00243,0 -22.00242,0 -3.09897,2.26504 c -5.9762,4.36786 -38.22981,39.51285 -44.57203,48.56772 l -1.12888,1.61167 93.01475,0 93.01471,0 0,-8.74071 c 0,-5.6479 0.299,-8.74074 0.84544,-8.74074 1.67253,0 43.74642,24.85675 43.11124,25.46962 -1.26669,1.22209 -42.19532,24.59095 -43.06903,24.59095 -0.59999,0 -0.88765,-2.8328 -0.88765,-8.74074 l 0,-8.74072 -73.50171,0 c -40.4259,0 -73.50162,0.22116 -73.50162,0.49159 0,1.15774 24.32701,28.62716 34.16148,38.57425 8.5493,8.64723 11.38108,11.03193 13.91256,11.7161 1.83738,0.49654 10.80598,0.86086 21.25588,0.86343 l 18.07745,0.003 0,-7.15149 0,-7.15147 22.64648,0 22.64644,0 0,22.24914 0,22.24913 -3.57575,0.0477 c -1.96667,0.0272 -11.26363,0.048 -20.65994,0.048 -9.39628,0 -17.97808,-0.0211 -19.07069,-0.048 -1.9762,-0.0477 -1.98654,-0.0869 -1.98654,-7.59649 l 0,-7.54885 -21.32759,0 -21.32763,0 -4.78619,-2.39169 c -8.3607,-4.17782 -23.15715,-19.33402 -49.8303,-51.04184 l -11.19294,-13.30561 -23.11665,-0.003 -23.11662,-0.003 -1.0099,3.37709 c -3.7073,12.3975 -14.02224,22.35666 -26.65578,25.73644 -4.69028,1.25474 -13.67629,1.37057 -18.58229,0.23956 -6.29894,-1.45216 -12.23974,-4.92058 -17.58706,-10.26793 -5.34742,-5.34732 -8.81564,-11.28816 -10.26776,-17.58703 -0.96494,-4.1852 -0.95466,-14.25078 0.0181,-18.38029 z"
       id="path4250"
       inkscape:connector-curvature="0" />
  </g>
</svg>
