<?xml version="1.0" encoding="UTF-8" standalone="no"?>
<!-- Created with Inkscape (http://www.inkscape.org/) -->

<svg
   xmlns:dc="http://purl.org/dc/elements/1.1/"
   xmlns:cc="http://creativecommons.org/ns#"
   xmlns:rdf="http://www.w3.org/1999/02/22-rdf-syntax-ns#"
   xmlns:svg="http://www.w3.org/2000/svg"
   xmlns="http://www.w3.org/2000/svg"
   xmlns:sodipodi="http://sodipodi.sourceforge.net/DTD/sodipodi-0.dtd"
   xmlns:inkscape="http://www.inkscape.org/namespaces/inkscape"
   width="500"
   height="500"
   viewBox="0 0 132.29166 132.29167"
   version="1.1"
   id="svg3227"
   inkscape:version="0.92.2 5c3e80d, 2017-08-06"
   sodipodi:docname="PXEBoot.svg">
  <defs
     id="defs3221" />
  <sodipodi:namedview
     id="base"
     pagecolor="#ffffff"
     bordercolor="#666666"
     borderopacity="1.0"
     inkscape:pageopacity="0.0"
     inkscape:pageshadow="2"
     inkscape:zoom="0.72917299"
     inkscape:cx="69.641906"
     inkscape:cy="291.37769"
     inkscape:document-units="mm"
     inkscape:current-layer="layer1"
     showgrid="false"
     units="px"
     inkscape:window-width="1920"
     inkscape:window-height="1017"
     inkscape:window-x="1920"
     inkscape:window-y="35"
     inkscape:window-maximized="1" />
  <metadata
     id="metadata3224">
    <rdf:RDF>
      <cc:Work
         rdf:about="">
        <dc:format>image/svg+xml</dc:format>
        <dc:type
           rdf:resource="http://purl.org/dc/dcmitype/StillImage" />
        <dc:title></dc:title>
      </cc:Work>
    </rdf:RDF>
  </metadata>
  <g
     inkscape:label="Layer 1"
     inkscape:groupmode="layer"
     id="layer1"
     transform="translate(0,-164.70832)">
    <path
       sodipodi:nodetypes="zccczzccczzccczzccczz"
       inkscape:connector-curvature="0"
       style="opacity:1;fill:#00285c;fill-opacity:1;fill-rule:nonzero;stroke:none;stroke-width:0.29487488;stroke-linejoin:miter;stroke-miterlimit:4;stroke-dasharray:none;stroke-opacity:1"
       d="m 20.414268,179.25172 c 2.971602,0 5.921264,0 5.921264,0 h 5.921222 5.921303 c 0,0 2.619588,0.002 5.921131,0 3.301542,-0.001 5.921428,2.9496 5.921428,5.9212 0,2.9716 0,5.92126 0,5.92126 v 5.92123 5.92129 c 0,0 -0.0023,2.70997 0,5.92115 0.0011,3.21117 -2.949604,5.92141 -5.9212,5.92141 -2.971606,0 -5.921268,0 -5.921268,0 h -5.921222 -5.921291 c 0,0 -2.664783,-0.002 -5.921145,0 -3.256361,0.001 -5.921422,-2.94959 -5.921422,-5.9212 0,-2.97159 0,-5.92125 0,-5.92125 v -5.92124 -5.92129 c 0,0 0.0015,-2.75515 0,-5.92114 -0.0015,-3.16599 2.949599,-5.92142 5.9212,-5.92142 z"
       id="rect5371" />
    <path
       id="path5396"
       d="m 24.322318,185.11377 c 1.990971,0 3.967247,0 3.967247,0 h 3.967223 3.967259 c 0,0 1.75514,8.9e-4 3.967166,0 2.212037,-9e-4 3.967361,1.97623 3.967361,3.9672 0,1.99097 0,3.96724 0,3.96724 v 3.96723 3.96727 c 0,0 -0.0011,1.81567 0,3.96716 0.0011,2.15149 -1.976241,3.96735 -3.967212,3.96735 -1.990971,0 -3.967247,0 -3.967247,0 h -3.967212 -3.96727 c 0,0 -1.7854,-8.9e-4 -3.967166,0 -2.181762,8.9e-4 -3.967354,-1.97623 -3.967354,-3.9672 0,-1.99098 0,-3.96725 0,-3.96725 v -3.96722 -3.96727 c 0,0 0.001,-1.84594 0,-3.96717 -10e-4,-2.12121 1.976233,-3.96734 3.967205,-3.96734 z"
       style="opacity:1;fill:#ffcd06;fill-opacity:1;fill-rule:nonzero;stroke:none;stroke-width:0.29487488;stroke-linejoin:miter;stroke-miterlimit:4;stroke-dasharray:none;stroke-opacity:1"
       inkscape:connector-curvature="0"
       sodipodi:nodetypes="zccczzccczzccczzccczz" />
    <rect
       y="169.28123"
       x="23.135809"
       height="10.057751"
       width="2.0953639"
       id="rect5398"
       style="opacity:1;fill:#00285c;fill-opacity:1;fill-rule:nonzero;stroke:none;stroke-width:0.29487488;stroke-linejoin:miter;stroke-miterlimit:4;stroke-dasharray:none;stroke-opacity:1" />
    <rect
       transform="rotate(90)"
       style="opacity:1;fill:#00285c;fill-opacity:1;fill-rule:nonzero;stroke:none;stroke-width:0.29487488;stroke-linejoin:miter;stroke-miterlimit:4;stroke-dasharray:none;stroke-opacity:1"
       id="rect5400"
       width="2.0953639"
       height="5.028873"
       x="169.27968"
       y="-28.1805" />
    <circle
       cy="170.35233"
       cx="29.764229"
       id="path5420"
       style="opacity:1;fill:#ffcd06;fill-opacity:1;fill-rule:nonzero;stroke:none;stroke-width:0.29487488;stroke-linejoin:miter;stroke-miterlimit:4;stroke-dasharray:none;stroke-opacity:1"
       r="2.3911808" />
    <rect
       y="174.23958"
       x="37.66433"
       height="5.0705447"
       width="2.0953639"
       id="rect5424"
       style="opacity:1;fill:#00285c;fill-opacity:1;fill-rule:nonzero;stroke:none;stroke-width:0.29487488;stroke-linejoin:miter;stroke-miterlimit:4;stroke-dasharray:none;stroke-opacity:1" />
    <circle
       transform="rotate(-90)"
       style="opacity:1;fill:#ffcd06;fill-opacity:1;fill-rule:nonzero;stroke:none;stroke-width:0.29487488;stroke-linejoin:miter;stroke-miterlimit:4;stroke-dasharray:none;stroke-opacity:1"
       id="circle5426"
       cx="-172.65587"
       cy="38.736897"
       r="2.3911808" />
    <rect
       transform="matrix(0,-1,-1,0,0,0)"
       y="-59.918346"
       x="-193.78154"
       height="10.057751"
       width="2.0953639"
       id="rect5428"
       style="opacity:1;fill:#00285c;fill-opacity:1;fill-rule:nonzero;stroke:none;stroke-width:0.29487488;stroke-linejoin:miter;stroke-miterlimit:4;stroke-dasharray:none;stroke-opacity:1" />
    <rect
       transform="scale(-1,1)"
       style="opacity:1;fill:#00285c;fill-opacity:1;fill-rule:nonzero;stroke:none;stroke-width:0.29487488;stroke-linejoin:miter;stroke-miterlimit:4;stroke-dasharray:none;stroke-opacity:1"
       id="rect5430"
       width="2.0953639"
       height="10.057751"
       x="-59.919899"
       y="183.70798" />
    <circle
       transform="matrix(0,-1,-1,0,0,0)"
       cy="-58.847366"
       cx="-183.80055"
       id="circle5432"
       style="opacity:1;fill:#ffcd06;fill-opacity:1;fill-rule:nonzero;stroke:none;stroke-width:0.29487488;stroke-linejoin:miter;stroke-miterlimit:4;stroke-dasharray:none;stroke-opacity:1"
       r="2.3911808" />
    <rect
       y="-224.63747"
       x="23.681541"
       height="10.057751"
       width="2.0953639"
       id="rect5436"
       style="opacity:1;fill:#00285c;fill-opacity:1;fill-rule:nonzero;stroke:none;stroke-width:0.29487488;stroke-linejoin:miter;stroke-miterlimit:4;stroke-dasharray:none;stroke-opacity:1"
       transform="scale(1,-1)" />
    <circle
       transform="matrix(0,1,1,0,0,0)"
       style="opacity:1;fill:#ffcd06;fill-opacity:1;fill-rule:nonzero;stroke:none;stroke-width:0.29487488;stroke-linejoin:miter;stroke-miterlimit:4;stroke-dasharray:none;stroke-opacity:1"
       id="circle5438"
       cx="224.54492"
       cy="24.75408"
       r="2.3911808" />
    <rect
       transform="rotate(-90)"
       y="4.9314928"
       x="-199.7227"
       height="10.057751"
       width="2.0953639"
       id="rect5440"
       style="opacity:1;fill:#00285c;fill-opacity:1;fill-rule:nonzero;stroke:none;stroke-width:0.29487488;stroke-linejoin:miter;stroke-miterlimit:4;stroke-dasharray:none;stroke-opacity:1" />
    <rect
       style="opacity:1;fill:#00285c;fill-opacity:1;fill-rule:nonzero;stroke:none;stroke-width:0.29487488;stroke-linejoin:miter;stroke-miterlimit:4;stroke-dasharray:none;stroke-opacity:1"
       id="rect5442"
       width="2.0953639"
       height="10.057751"
       x="4.9299307"
       y="189.64914" />
    <circle
       transform="rotate(-90)"
       cy="6.0024695"
       cx="-189.74171"
       id="circle5444"
       style="opacity:1;fill:#ffcd06;fill-opacity:1;fill-rule:nonzero;stroke:none;stroke-width:0.29487488;stroke-linejoin:miter;stroke-miterlimit:4;stroke-dasharray:none;stroke-opacity:1"
       r="2.3911808" />
    <rect
       transform="matrix(0,1,1,0,0,0)"
       style="opacity:1;fill:#00285c;fill-opacity:1;fill-rule:nonzero;stroke:none;stroke-width:0.29487488;stroke-linejoin:miter;stroke-miterlimit:4;stroke-dasharray:none;stroke-opacity:1"
       id="rect5446"
       width="2.0953639"
       height="10.057751"
       x="202.90593"
       y="4.7597961" />
    <rect
       y="-212.97949"
       x="4.758234"
       height="10.057751"
       width="2.0953639"
       id="rect5448"
       style="opacity:1;fill:#00285c;fill-opacity:1;fill-rule:nonzero;stroke:none;stroke-width:0.29487488;stroke-linejoin:miter;stroke-miterlimit:4;stroke-dasharray:none;stroke-opacity:1"
       transform="scale(1,-1)" />
    <circle
       transform="matrix(0,1,1,0,0,0)"
       style="opacity:1;fill:#ffcd06;fill-opacity:1;fill-rule:nonzero;stroke:none;stroke-width:0.29487488;stroke-linejoin:miter;stroke-miterlimit:4;stroke-dasharray:none;stroke-opacity:1"
       id="circle5450"
       cx="212.88693"
       cy="5.8307643"
       r="2.3911808" />
    <rect
       transform="scale(-1)"
       y="-219.51323"
       x="-42.559513"
       height="5.028873"
       width="2.0953639"
       id="rect5452"
       style="opacity:1;fill:#00285c;fill-opacity:1;fill-rule:nonzero;stroke:none;stroke-width:0.29487488;stroke-linejoin:miter;stroke-miterlimit:4;stroke-dasharray:none;stroke-opacity:1" />
    <rect
       transform="rotate(-90)"
       style="opacity:1;fill:#00285c;fill-opacity:1;fill-rule:nonzero;stroke:none;stroke-width:0.29487488;stroke-linejoin:miter;stroke-miterlimit:4;stroke-dasharray:none;stroke-opacity:1"
       id="rect5454"
       width="2.0953639"
       height="10.057751"
       x="-219.5148"
       y="32.48595" />
    <circle
       transform="scale(-1)"
       cy="-218.44223"
       cx="-32.578522"
       id="circle5456"
       style="opacity:1;fill:#ffcd06;fill-opacity:1;fill-rule:nonzero;stroke:none;stroke-width:0.29487488;stroke-linejoin:miter;stroke-miterlimit:4;stroke-dasharray:none;stroke-opacity:1"
       r="2.3911808" />
    <rect
       transform="rotate(90)"
       style="opacity:1;fill:#00285c;fill-opacity:1;fill-rule:nonzero;stroke:none;stroke-width:0.29487488;stroke-linejoin:miter;stroke-miterlimit:4;stroke-dasharray:none;stroke-opacity:1"
       id="rect5458"
       width="2.0953639"
       height="5.028873"
       x="201.8334"
       y="-54.771347" />
    <circle
       cy="202.90596"
       cx="56.355076"
       id="circle5460"
       style="opacity:1;fill:#ffcd06;fill-opacity:1;fill-rule:nonzero;stroke:none;stroke-width:0.29487488;stroke-linejoin:miter;stroke-miterlimit:4;stroke-dasharray:none;stroke-opacity:1"
       r="2.3911808" />
    <g
       aria-label="PXE"
       transform="rotate(-45)"
       style="font-style:normal;font-weight:normal;font-size:10.58333302px;line-height:1.25;font-family:sans-serif;letter-spacing:0px;word-spacing:0px;fill:#4d4d4d;fill-opacity:1;stroke:none;stroke-width:0.26458332"
       id="text3656">
      <path
         d="m -140.94744,235.38999 q 5.79966,0 9.01699,2.413 3.21734,2.413 3.21734,7.15433 0,4.953 -3.175,7.493 -3.13267,2.49767 -8.42434,2.49767 h -3.17499 v 9.779 h -6.94267 v -29.337 z m 0.0423,14.56267 q 2.45533,0 3.72533,-1.143 1.31233,-1.18534 1.31233,-3.85234 0,-4.61433 -5.16466,-4.61433 h -2.45533 v 9.60967 z"
         style="font-style:normal;font-variant:normal;font-weight:bold;font-stretch:normal;font-size:42.33333206px;font-family:'Fira Sans';-inkscape-font-specification:'Fira Sans Bold';fill:#4d4d4d;stroke-width:0.26458332"
         id="path8545" />
      <path
         d="m -103.03332,264.72699 h -7.57766 l -5.03767,-11.176 -4.953,11.176 h -7.366 l 8.21267,-15.57867 -7.57767,-13.75833 h 7.53533 l 4.23334,9.398 4.445,-9.398 h 7.366 l -7.747,13.50433 z"
         style="font-style:normal;font-variant:normal;font-weight:bold;font-stretch:normal;font-size:42.33333206px;font-family:'Fira Sans';-inkscape-font-specification:'Fira Sans Bold';fill:#4d4d4d;stroke-width:0.26458332"
         id="path8547" />
      <path
         d="m -83.21801,240.34299 h -10.329333 v 7.02733 h 9.016999 v 4.86834 h -9.016999 v 7.493 h 11.048999 v 4.99533 h -17.991666 v -29.337 h 17.991666 z"
         style="font-style:normal;font-variant:normal;font-weight:bold;font-stretch:normal;font-size:42.33333206px;font-family:'Fira Sans';-inkscape-font-specification:'Fira Sans Bold';fill:#4d4d4d;stroke-width:0.26458332"
         id="path8549" />
    </g>
    <path
       style="fill:#ffff00;fill-opacity:1;stroke:#000000;stroke-width:1.58395219;stroke-linecap:butt;stroke-linejoin:miter;stroke-miterlimit:4;stroke-dasharray:none;stroke-opacity:1"
       d="m 110.83755,175.54003 -70.131247,55.95683 16.74452,0.2272 -44.816662,57.51752 78.104076,-64.97295 -16.401239,-0.0319 z"
       id="path7347"
       inkscape:connector-curvature="0"
       sodipodi:nodetypes="ccccccc" />
  </g>
</svg>
