<?xml version="1.0" encoding="UTF-8" standalone="no"?>
<svg id="svg4581" xmlns:rdf="http://www.w3.org/1999/02/22-rdf-syntax-ns#" xmlns="http://www.w3.org/2000/svg" height="800" width="1e3" version="1.1" xmlns:cc="http://creativecommons.org/ns#" xmlns:dc="http://purl.org/dc/elements/1.1/" viewBox="0 0 1000 800.00001">
	<g id="layer1" transform="translate(0 -252.36)">
		<g>
			<rect id="rect3429" transform="rotate(90)" ry="0" height="176.92" width="82.074" stroke="#292929" y="-622.99" x="427.22" stroke-width="4.3421" fill="#8d8d8d"/>
			<rect id="rect4231" transform="rotate(90)" height="61.128" width="48.162" stroke="#545454" y="-665.78" x="444.18" stroke-width="4.3421" fill="#bfbfbf"/>
			<rect id="rect4233" transform="rotate(90)" height="12.502" width="12.502" y="-655.86" x="451.82" fill="#414141"/>
			<rect id="rect4235" transform="rotate(90)" height="12.502" width="12.502" y="-655.86" x="472.2" fill="#414141"/>
		</g>
		<path id="path4250" fill-opacity=".58333" d="m472.88 465.28c.42083-1.7849 1.8548-4.2246 3.3791-5.7489 3.9234-3.9235 9.7235-4.7925 14.771-2.2131 2.6408 1.3496 5.0572 4.2398 5.9727 7.144l.44429 1.4094h1.2399 1.2399l3.8326-4.57c8.808-10.503 14.058-15.906 16.73-17.218l1.4863-.72989 7.8091-.0802 7.8091-.0802.3172-.76575c.46478-1.1221 2.5924-2.9969 4.0194-3.5419 1.7988-.68698 4.7216-.46941 6.3262.47093 2.3691 1.3884 3.6818 3.6931 3.698 6.4923.0174 2.9995-1.3578 5.2102-4.09 6.5755-3.0484 1.5233-6.5069.91319-8.7164-1.5377-.54984-.60991-1.1318-1.3988-1.2933-1.7532l-.29353-.64429h-7.2924-7.2924l-1.0271.75072c-1.9807 1.4477-12.671 13.096-14.773 16.097l-.37415.53417h30.829 30.829v-2.897c0-1.8719.0991-2.897.28021-2.897.55434 0 14.499 8.2385 14.289 8.4416-.41983.40505-13.985 8.1504-14.275 8.1504-.19886 0-.2942-.9389-.2942-2.897v-2.897h-24.361c-13.399 0-24.361.0733-24.361.16293 0 .38372 8.0629 9.4882 11.322 12.785 2.8336 2.866 3.7721 3.6564 4.6112 3.8832.60898.16457 3.5815.28532 7.045.28617l5.9916.00089v-2.3703-2.3703h7.5059 7.5059v7.3742 7.3742l-1.1851.0158c-.65183.009-3.7332.0159-6.8475.0159s-5.9586-.007-6.3208-.0159c-.65499-.0158-.65842-.0288-.65842-2.5178v-2.502h-7.0688-7.0688l-1.5863-.7927c-2.7711-1.3847-7.6752-6.408-16.516-16.917l-3.7098-4.41-7.6618-.0009-7.6617-.00089-.33472 1.1193c-1.2287 4.109-4.6475 7.4099-8.8348 8.53-1.5545.41587-4.5328.45426-6.1589.0794-2.0877-.4813-4.0567-1.6309-5.829-3.4032s-2.9218-3.7413-3.4031-5.829c-.31982-1.3871-.31641-4.7233.006-6.0919z"/>
	</g>
	<g id="layer2">
		<g>
			<path id="rect5276" d="m642.28 125.49v549.03h395v-549.03zm156.83 58.571c49.496 0 89.621 40.125 89.621 89.621s-40.125 89.621-89.621 89.621-89.621-40.125-89.621-89.621 40.125-89.621 89.621-89.621z" stroke="#292929" stroke-width="6.9705" fill="#4d4d4d"/>
			<path id="path5296" d="m763.98 193.12 23.401 66.127c-.37008.1295 4.0306-2.6832 3.6728-2.5325-6.9287 2.9173-11.495 9.7179-11.504 17.311.005.9252.0789-2.646.22008-1.7317l-68.232 11.635 35.057 60.722 43.903-53.699c.35908.27435-2.7883-1.4432-2.4125-1.1966 3.0448 1.9975 6.6135 3.0736 10.274 3.0819 3.7704-.007 7.4344-1.1469 10.527-3.2465.58414-.39651-2.2871 1.4619-1.7468.9981l44.329 54.052 35.057-60.722-69.788-10.854c.11267-.83242.41966 1.8436.4277.96183-.002-7.1327-4.0333-13.612-10.342-16.791-.3598-.18126 3.108 1.9493 2.7338 1.79l24.54-65.904z" fill-rule="evenodd" stroke="#4d4d4d" stroke-width="1.7885px" fill="#4d4d4d"/>
			<path id="path5424" d="m181.14 339.89c-8.6862-.74448-18.475-2.818-26.735-5.6634-9.798-3.3749-20.642-8.8834-28.868-14.664-17.052-11.983-30.217-27.309-39.198-45.633-6.6032-13.471-10.184-26.423-11.345-41.037-.35926-4.5223-.15344-16.438.35356-20.468 1.0202-8.1099 2.6132-15.355 4.9833-22.666 4.7475-14.644 12.283-28.225 22.338-40.256 5.8672-7.0204 16.344-16.548 20.153-18.327 7.5072-3.5069 16.182 1.9827 16.17 10.233-.006 4.1358-1.4231 6.9321-4.8939 9.6566-5.8999 4.6312-12.686 11.185-16.485 15.92-9.5907 11.955-15.626 25.097-18.376 40.009-1.1466 6.2189-1.427 9.6976-1.427 17.708 0 7.9851.27499 11.417 1.4188 17.708 5.3181 29.247 23.356 53.141 49.564 65.653 9.5442 4.5567 19.123 7.2718 30.458 8.6327 5.0078.60133 16.95.60133 21.958 0 11.334-1.361 20.913-4.076 30.458-8.6327 26.235-12.525 44.32-36.523 49.568-65.771.92712-5.1675 1.323-9.2307 1.4721-15.111.57315-22.59-5.986-42.706-19.448-59.643-3.3047-4.1579-10.609-11.429-15.001-14.932-3.9172-3.1249-4.7935-4.08-5.8918-6.4217-.66731-1.4227-.78141-1.9467-.86377-3.9657-.11641-2.8555.34112-4.7684 1.6054-6.7114 3.2448-4.9868 9.2809-6.793 14.515-4.3435 3.9715 1.8585 14.484 11.473 20.568 18.812 22.168 26.739 31.642 60.983 25.934 93.734-5.2245 29.973-23.506 58.08-49.438 76.008-8.6481 5.9789-18.761 11.102-28.687 14.532-8.3768 2.8951-17.955 4.8937-27.152 5.6656-3.3385.28022-14.33.26493-17.708-.0246zm6.7423-102.93c-1.847-.36217-4.3383-1.7168-5.7455-3.1239-1.645-1.645-2.9044-4.1373-3.2426-6.417-.16615-1.1198-.22426-22.247-.18025-65.519l.065-63.866.53228-1.3976c1.1778-3.0924 3.1978-5.2968 6.1424-6.7029 1.8026-.86078 1.8614-.87150 4.7764-.87150s2.9738.01051 4.7764.87150c2.9446 1.4061 4.9646 3.6105 6.1424 6.7029l.53228 1.3976.0648 63.866c.0438 43.235-.0144 64.4-.18024 65.519-.952 6.4216-7.2382 10.805-13.683 9.5409z" stroke="#292929" stroke-width="5.8383" fill="#00b200"/>
		</g>
		<g id="text4213" fill="#1a1a1a">
			<path id="path5928" d="m59.415 540.51h42.212q28.853 0 41.841 8.2568 13.081 8.1641 13.081 26.069 0 12.153-5.752 19.946-5.6592 7.793-15.122 9.3701v.92774q12.896 2.876 18.555 10.762 5.752 7.8857 5.752 20.967 0 18.555-13.452 28.945-13.359 10.391-36.367 10.391h-50.747v-135.63zm28.76 53.716h16.699q11.689 0 16.885-3.6182 5.2881-3.6182 5.2881-11.968 0-7.793-5.752-11.133-5.6592-3.4326-17.998-3.4326h-15.122v30.151zm0 22.822v35.347h18.74q11.875 0 17.534-4.5459 5.6592-4.5459 5.6592-13.916 0-16.885-24.121-16.885h-17.813z"/>
			<path id="path5930" d="m310.18 608.14q0 33.677-16.699 51.768-16.7 18.09-47.87 18.09-31.172 0-47.871-18.091t-16.699-51.953 16.699-51.675q16.792-17.905 48.057-17.905t47.778 17.998q16.606 17.998 16.606 51.768zm-98.989 0q0 22.729 8.6279 34.233t25.791 11.504q34.419 0 34.419-45.737 0-45.83-34.233-45.83-17.163 0-25.884 11.597-8.7207 11.504-8.7207 34.233z"/>
			<path id="path5932" d="m461.59 608.14q0 33.677-16.699 51.768-16.7 18.09-47.87 18.09-31.172 0-47.871-18.091t-16.699-51.953 16.699-51.675q16.792-17.905 48.057-17.905t47.778 17.998q16.606 17.998 16.606 51.768zm-98.989 0q0 22.729 8.6279 34.233t25.791 11.504q34.419 0 34.419-45.737 0-45.83-34.233-45.83-17.163 0-25.884 11.597-8.7207 11.504-8.7207 34.233z"/>
			<path id="path5934" d="m539.61 676.14h-28.76v-111.7h-36.831v-23.936h102.42v23.936h-36.831v111.7z"/>
		</g>
	</g>
</svg>
