<?xml version="1.0" encoding="UTF-8" standalone="no"?>
<svg id="svg2" xmlns:rdf="http://www.w3.org/1999/02/22-rdf-syntax-ns#" xmlns="http://www.w3.org/2000/svg" height="800" width="1e3" version="1.1" xmlns:cc="http://creativecommons.org/ns#" xmlns:dc="http://purl.org/dc/elements/1.1/" viewBox="0 0 1000 800.00001">
	<g id="layer1" transform="translate(0 -252.36)">
		<g id="layer1-3" transform="translate(-26.442 -302.02)" stroke="#292929">
			<rect id="rect4136" ry="66.822" height="338.15" width="259.71" stroke-linecap="round" y="633.29" x="120.14" stroke-width="8.2879" fill="#c4c4c4"/>
			<circle id="path4138" stroke-width="8.109" stroke-linecap="round" cy="765.15" cx="250" r="98.08" fill="none"/>
			<path id="path4142" d="m228.97 811.19c-8.2131 9.7845 82.835 106.32 89.818 106.32 18.648 0 34.699-25.382 33.809-44.215-.31635-6.6948-115.41-71.885-123.63-62.1z" fill-rule="evenodd" stroke-width="8.172" fill="#c4c4c4"/>
			<circle id="circle4144" cx="250" stroke-linecap="round" cy="763.71" r="20.314" stroke-width="8.3973" fill="#797979"/>
		</g>
		<g>
			<rect id="rect3429" ry="0" height="276.37" width="128.21" stroke="#292929" y="395.6" x="725.74" stroke-width="6.783" fill="#8d8d8d"/>
			<rect id="rect4231" height="95.49" width="75.235" stroke="#545454" y="328.75" x="752.22" stroke-width="6.783" fill="#bfbfbf"/>
			<rect id="rect4233" height="19.53" width="19.53" y="344.25" x="764.16" fill="#414141"/>
			<rect id="rect4235" height="19.53" width="19.53" y="344.25" x="795.99" fill="#414141"/>
		</g>
		<path id="path4250" fill-opacity=".58333" d="m785.19 630.09c-2.7882-.65737-6.5993-2.8974-8.9805-5.2786-6.129-6.1289-7.4865-15.189-3.4571-23.074 2.1082-4.1254 6.6231-7.9 11.16-9.3301l2.2018-.69404v-1.9369-1.9369l-7.139-5.9871c-16.4-13.77-24.84-21.97-26.89-26.14l-1.1402-2.3218-.12517-12.199-.12517-12.199-1.1962-.4955c-1.7528-.72604-4.6816-4.0496-5.5329-6.2789-1.0732-2.81-.73329-7.3758.73566-9.8823 2.1688-3.7008 5.7691-5.7515 10.142-5.7767 4.6856-.027 8.139 2.121 10.272 6.3892 2.3796 4.762 1.4265 10.165-2.4021 13.616-.95275.85891-2.1852 1.768-2.7387 2.0202l-1.0064.45855v11.392 11.392l1.1727 1.6045c2.2615 3.0942 20.458 19.794 25.146 23.077l.83446.58447v-48.159-48.159h-4.5255c-2.9242 0-4.5255-.15489-4.5255-.43772 0-.86596 12.87-22.65 13.187-22.321.63275.65583 12.732 21.847 12.732 22.299 0 .31062-1.4667.45956-4.5255.45956h-4.5255v38.056c0 20.931.11453 38.056.25453 38.056.59941 0 14.822-12.595 19.972-17.687 4.4771-4.4264 5.7118-5.8926 6.066-7.2033.25709-.95131.44571-5.5948.44704-11.005l.002-9.3596h-3.7027-3.7027v-11.725-11.725h11.52 11.52l.0247 1.8513c.0136 1.0182.0247 5.8318.0247 10.697 0 4.865-.0111 9.3082-.0247 9.8739-.0246 1.0232-.0449 1.0285-3.9331 1.0285h-3.9084v11.042 11.042l-1.2383 2.4781c-2.1631 4.3288-10.01 11.99-26.427 25.8l-6.889 5.7951-.002 11.969-.002 11.969 1.7485.52287c6.4188 1.9195 11.575 7.26 13.325 13.801.64964 2.4284.70963 7.0809.12403 9.621-.75186 3.2613-2.5477 6.3371-5.3162 9.1057-2.7686 2.7686-5.8444 4.5643-9.1057 5.3161-2.1669.49962-7.3784.49429-9.5165-.01z"/>
		<path id="rect4888" d="m625.94 450.36v32.142h-253.82v35.716h253.82v32.142l85.122-50z" fill="#212121"/>
		<g id="text4213" fill="#1a1a1a">
			<path id="path5917" d="m252.87 948.35h-27.875v-133.62h76.587v23.214h-48.712v34.455h45.331v23.122h-45.331v52.825z"/>
			<path id="path5919" d="m327.73 948.35v-133.62h28.332v110.22h54.196v23.396h-82.527z"/>
			<path id="path5921" d="m515.17 948.35-9.6876-31.805h-48.712l-9.6876 31.805h-30.525l47.159-134.16h34.638l47.341 134.16h-30.525zm-16.45-55.57q-13.435-43.229-15.171-48.895-1.6451-5.6663-2.3762-8.9565-3.016 11.698-17.273 57.851h34.821z"/>
			<path id="path5923" d="m641.29 911.24q0 18.096-13.069 28.514-12.978 10.419-36.191 10.419-21.386 0-37.836-8.0425v-26.321q13.526 6.0319 22.848 8.4995 9.4134 2.4676 17.182 2.4676 9.322 0 14.257-3.5643 5.0266-3.5643 5.0266-10.602 0-3.9299-2.1934-6.9458-2.1934-3.1073-6.4889-5.9405-4.204-2.8332-17.273-9.0479-12.247-5.7577-18.37-11.058-6.1233-5.3008-9.779-12.338t-3.6557-16.451q0-17.73 11.972-27.875 12.064-10.145 33.267-10.145 10.419 0 19.832 2.4676 9.5048 2.4676 19.832 6.9458l-9.1392 22.026q-10.693-4.3868-17.73-6.1233-6.9458-1.7364-13.709-1.7364-8.0425 0-12.338 3.7471-4.2954 3.7471-4.2954 9.779 0 3.7471 1.7364 6.5803 1.7365 2.7418 5.4836 5.3922 3.8385 2.559 18.004 9.322 18.735 8.9565 25.681 18.004 6.9458 8.9565 6.9458 22.026z"/>
			<path id="path5925" d="m775 948.35h-28.24v-57.669h-52.916v57.669h-28.332v-133.62h28.332v52.368h52.916v-52.368h28.24v133.62z"/>
		</g>
	</g>
</svg>
